<?xml version="1.0" encoding="utf-8"?>
<!-- Generator: Adobe Illustrator 16.0.0, SVG Export Plug-In . SVG Version: 6.00 Build 0)  -->
<!DOCTYPE svg PUBLIC "-//W3C//DTD SVG 1.1//EN" "http://www.w3.org/Graphics/SVG/1.1/DTD/svg11.dtd">
<svg version="1.1" xmlns="http://www.w3.org/2000/svg" xmlns:xlink="http://www.w3.org/1999/xlink" x="0px" y="0px" width="224px"
	 height="224px" viewBox="0 0 224 224" enable-background="new 0 0 224 224" xml:space="preserve">
<g id="Layer_10_copy">
	<circle fill-rule="evenodd" clip-rule="evenodd" fill="#C1CE49" cx="112.003" cy="111.819" r="108.91"/>
	<g>
		<defs>
			<circle id="SVGID_1_" cx="112.003" cy="111.819" r="108.91"/>
		</defs>
		<clipPath id="SVGID_2_">
			<use xlink:href="#SVGID_1_"  overflow="visible"/>
		</clipPath>
		<path clip-path="url(#SVGID_2_)" fill-rule="evenodd" clip-rule="evenodd" fill="#B3C542" d="M190.974,36.82
			c-0.026-0.027-0.051-0.056-0.077-0.083C149.432-6.833,80.375-8.428,36.806,33.036C-6.766,74.502-8.588,143.551,32.877,187.122
			c0.026,0.026,0.052,0.054,0.078,0.081L190.974,36.82z"/>
	</g>
</g>
<g id="work_hard">
	<g>
		<g>
			<path fill="#FFFFFF" d="M53.592,91.292l0.233,0.673l0.042,1.296l0.025,0.17l-0.097,0.312l-1.194,0.722l-1.024,0.696l-0.138,0.104
				l-0.058,0.295l-0.237,0.189l-0.449,1.319l-0.098,0.311l0.065,0.155l-0.145,0.196l0.073,0.285l-0.107,1.267l-0.104,0.95
				l0.218,0.634l-0.045,0.109l0.147,0.573l-0.077,0.031l0.063,0.698l-0.077,0.032l0.024,1.801l-0.069,0.165l0.075,0.286
				l-0.069,1.251l0.002,1.312l0.024,1.257l0.108,1.133l-0.081,0.349l0.062,1.242l-0.128,0.234l0.064,0.155l-0.113,0.273l0.067,0.379
				l-0.129,0.235l0.179,0.65l0.063,1.241l0.044,0.978l-0.112,0.273l0.105,0.905l0.047,0.661l-0.081,0.894l-0.067,0.164l0.064,0.154
				l-0.076,0.257l0.077,0.51l-0.083,0.127l0.058,0.247l-0.097,0.312l0.062,0.474l-0.156,0.606l0.013,0.357l-0.126,0.46l0.116,0.495
				l-0.136,0.328l0.035,0.303l-0.281,1.067l-0.117,1.135l-0.113,0.272l0.036,0.303l-0.332,0.727l0.058,0.248l-0.342,0.594
				l-0.371,1.286l-0.629,1.212l-0.151,0.289l-0.2,0.173l-0.296,0.485l-0.95,0.982l-0.652,0.498l-0.03,0.148l-0.978,0.588
				l-1.358,0.654l-0.656,0.273l-1.279,0.078l-0.505-0.016l-0.142-0.124l-0.208,0.043l-0.306-0.191l-0.186-0.013l-0.785-0.579
				l-0.553-0.132l-0.534,0.13l-0.303,0.579l-0.237,0.188l-0.287,0.618l-0.335,0.502l-0.772,0.864l-0.277,0.204l-0.152,0.289
				l-0.984,0.683l-1.034,0.563l-1.428,0.594l-1.218,0.009l-0.141-0.123l-0.732-0.239l-0.303,0.035l-0.064-0.154l-0.909-0.663
				l-0.857-0.865l-0.536-1.181l-0.359-1.3l-0.282-1.332l-0.144-0.346l0.116-0.05l-0.179-0.649l0.037-1.328l-0.179-1.192l0.083-0.127
				l0.038-1.327l-0.04-1.297l-0.086-1.186l0.099-0.087l-0.08-0.193l0.077-0.032l-0.064-0.154l0.075-0.257l-0.079-1.279l0.013-0.731
				l-0.133-1.301l0.069-1.251l-0.034-1.39l0.03-0.691l-0.047-1.203l0.068-0.707l-0.069-0.604l0.052-0.202l-0.118-1.264l-0.001-1.313
				l-0.067-0.922l-0.157-0.161l-0.334-0.042l-0.348,0.145l-1.02,0.921l-0.96,0.851l-0.926,0.929l-0.802,1.012l-0.766,0.771
				l-0.136,0.328l-0.277,0.205l-0.451,0.55l-0.113,0.272l-0.154,0.064l-0.319,0.54l-0.237,0.188l-0.249,0.602l-0.35,0.463
				l-0.326,0.633l-0.194,0.624l-0.003,0.318l-0.151,0.289l0.15,1.341l0.243,1.348l0.256,0.618l0.174,0.199l0.077-0.032l0.334,0.587
				l0.305,0.188l0.152,0.255l1.095,0.676l0.412,0.011l0.625,0.193l0.325-0.089l0.42,0.141l0.154-0.063l0.541,0.319l0.292,0.376
				l0.11,0.046l0.234,0.671l0.109,0.59l-0.287,0.617l-0.262,0.243l-1.19,0.403l-0.62,0.032l-0.498-0.109l-0.249,0.057l-0.157-0.161
				l-0.302,0.036l-0.267-0.207l-0.302,0.036l-0.306-0.19l-0.701-0.161l-0.135-0.215L18.6,128.01l-0.849-0.733l-0.385-0.383
				l-0.133,0.01l-0.064-0.155l-0.211-0.185l-0.723-1.193l-0.388-1.15l-0.396-1.283l-0.109-0.589l0.014-1.273l0.219-0.997
				l-0.056-0.248l0.115-0.048l-0.035-0.303l0.123-0.142l0.139-0.646l0.596-1.289l0.412-0.533l0.503-1.295l0.222-0.229l0.136-0.327
				l0.193-0.081l-0.033-0.077l0.155-0.063l0.296-0.486l0.918-1.06l0.412-0.535l0.944-0.888l0.859-0.764l0.966-0.945l0.412-0.534
				l0.27-0.111l0.229-0.322l0.215-0.133l0.467-0.511l0.553-0.411l0.889-0.913l0.553-0.412l0.428-0.493l0.606-1.158l0.48-1.24
				l-0.081-0.193l0.068-0.164l0.216-0.135l0.249-0.601l0.289-0.393l0.029-0.146l0.596-0.747l1.223-0.87l0.638,0.008l0.658,0.496
				l0.404,0.647l0.048,0.659l-0.48,1.241l-0.552,1.179l-0.239,1.276l-0.126,0.459l0.058,0.248l-0.077,0.033l0.064,0.154
				l-0.116,0.048l0.08,0.193l-0.077,0.033l0.064,0.154l-0.077,0.032l0.08,0.193l-0.077,0.032l0.064,0.154l-0.116,0.048l0.08,0.193
				l-0.077,0.033l0.085,1.186l-0.083,0.668l0.095,1.318l0.001,1.312l0.054,0.566l-0.077,0.032l0.041,1.295l-0.011,0.956
				l-0.017,0.504l0.112,0.271l-0.053,1.289l0.063,1.241l0.021,1.032l-0.074,0.257l0.08,0.736l-0.133,0.554l0.111,1.356l-0.045,0.653
				l0.051,0.341l-0.078,0.032l0.157,1.248l-0.074,0.258l0.115,0.495l-0.077,0.031l0.064,0.154l0.04,1.298l-0.099,0.086l0.063,0.154
				l-0.077,0.032l0.047,1.202l0.064,0.697l-0.046,0.653l0.041,1.296l0.141,0.666l-0.01,0.412l0.172,0.742l0.333,0.586l0.298,0.283
				l0.152,0.254l0.539,0.319l0.476,0.165l1.249-0.7l0.552-0.411l0.802-1.012l0.265-0.563l0.236-0.958l0.123-0.141l0.273-0.974
				l-0.057-0.247l0.448-1.318l0.073-1.026l0.067-0.164l-0.064-0.154l0.116-0.048l-0.076-0.512l0.135-0.328l-0.08-0.192l0.077-0.032
				l-0.076-0.512l0.193-0.623l0.004-1.405l-0.095-1.319l-0.068-0.38l0.101-0.086l-0.094-1.318l-0.054-1.11l0.135-0.326l-0.096-0.233
				l0.063-0.612l-0.042-0.753l0.112-0.273l-0.144-0.892l0.068-0.164l-0.075-0.285l0.042-0.336l-0.08-0.192l0.116-0.048l-0.056-1.334
				l-0.08-1.28l-0.025-0.17l0.113-0.273l-0.027-0.939l-0.09-0.325l0.077-0.032l-0.08-0.193l0.077-0.032l-0.064-0.154l0.116-0.048
				l-0.057-0.247l0.203-0.492l-0.058-0.248l0.077-0.032l-0.266-1.292l-0.042-0.209l0.077-0.576l-0.03-0.621l0.058-0.294
				l-0.103-0.682l0.085-0.126l-0.087-0.643l0.036-0.241l0.077-0.032l-0.08-0.193l0.101-0.63l-0.032-0.621l-0.09-0.324l0.197-0.942
				l0.383-0.385l0.592-0.427l0.348-0.145l0.263-0.02l0.656-0.272l0.032,0.078l0.473-0.062l0.289,0.152l0.334,0.586l0.163,1.154
				l-0.077,0.032l0.058,0.247l-0.097,0.312l0.01,0.675l0.106,0.364l0.04,1.294l-0.037,1.329l-0.075,1.344l0.141,0.667l-0.078,0.032
				l0.087,0.643l-0.118,1.135l0.035,1.389l-0.031,1.235l0.167,1.38l-0.136,0.329l0.089,0.323l0.018,1.351l0.057,1.335l-0.056,1.064
				l0.044,0.434l-0.097,0.312l0.075,0.287l-0.129,0.234l0.243,1.348l-0.056,1.064l-0.11,1.041l0.153,0.479l-0.077,0.031l0.048,1.204
				l0.064,0.154l-0.077,0.032l0.041,0.753l-0.007,0.636l0.084,0.418l-0.046,0.109l0.292,0.92l-0.077,0.032l0.42,1.228l0.395,0.517
				l0.267,0.207l0.606,0.154l0.534-0.132l0.664-0.365l0.221-0.229l0.602-0.295l0.396-0.572l0.496-1.203l0.464-1.278l0.397-1.115
				l0.045-0.653l0.152-0.289l-0.058-0.247l0.077-0.032l-0.058-0.248l0.155-0.607l0.169-1.337l0.112-0.273l-0.086-0.644l0.097-0.312
				l-0.057-1.334l0.037-1.329l0.071-0.481l-0.064-0.154l0.078-0.032l-0.115-0.495l-0.003-1.312l-0.094-0.774l0.036-1.327
				l-0.063-0.699l0.078-0.032l-0.058-0.248l0.101-0.63l0.043-1.421l0.123-0.685l-0.32-1.315l0.051-0.747l-0.044-0.435l0.078-0.032
				l-0.073-0.83l0.077-0.032l-0.051-0.884l-0.046-1.203l0.122-0.141l0.015-1.273l-0.08-1.28l-0.133-1.302l0.014-1.273l0.104-0.95
				l-0.047-0.659l0.21-1.128l0.007-0.093l0.154-0.063l0.536-1.218l0.302-0.58l0.133-0.553l0.952-0.758l0.406-0.441l0.57-0.372
				l0.206-0.267l1.213-0.458l1.235-0.513l0.279,0.019l0.454,0.219L53.592,91.292z M28.103,126.914l0.103,0.139l0.148,0.028
				l0.261-0.245l0.029-0.146l-0.148-0.03l-0.37,0.2L28.103,126.914z M28.351,126.312l0.212,0.186l0.231-0.097l-0.119-0.178
				l-0.202-0.052L28.351,126.312z M28.033,122.824l0.223-0.229l-0.02-0.263l-0.206,0.267l0.009,0.131L28.033,122.824z
				 M28.746,125.74l0.527-0.038l0.139-0.102l0.03-0.149l-0.125-0.082l-0.495,0.113l-0.067,0.165L28.746,125.74z M28.632,122.303
				l0.077-0.032l0.102,0.139l0.315-0.221l0.014-0.187l-0.235-0.128l0.009,0.13l-0.276,0.207L28.632,122.303z M28.285,118.961
				l-0.223,0.229l-0.028,0.149l0.08,0.192l0.286-0.074l0.256-0.694l-0.09-0.325l-0.28-0.019l-0.033,0.466L28.285,118.961z
				 M26.283,108.477l-0.155,0.608l0.189,0.237l0.155-0.064l0.167-0.251l0.125-0.46l-0.057-0.247L26.283,108.477z M28.614,120.953
				l0.279,0.019l0.254-0.151l-0.395-0.514l-0.1,0.086l-0.071,0.481L28.614,120.953z M28.864,114.691l-0.129,0.235l-0.486,0.247
				l0.119,0.177l-0.158,0.383l0.026,0.17l0.685,0.123l0.046-0.653l0.146-0.195l0.041-0.335l-0.225-0.54l-0.32-0.229L28.864,114.691z
				 M29.281,118.639l0.049-0.428l0.154-0.064l0.113-0.272l-0.296-0.06l-0.232,0.097l-0.046,0.652l0.125,0.085L29.281,118.639z
				 M26.914,108.033l0.193-0.08l-0.097-0.231l-0.093-0.007l-0.036,0.241L26.914,108.033z M29.322,116.991l-0.029,0.147l0.173,0.2
				l0.138-0.102l0.097-0.312l0.1-0.088l-0.026-0.17l-0.11-0.045l-0.27,0.112l-0.206-0.277l-0.317-0.003l-0.046,0.109l0.064,0.155
				l0.36,0.212L29.322,116.991z M28.111,112.877l0.193-0.08l-0.081-0.193l-0.193,0.08L28.111,112.877z M28.357,113.907l0.154-0.064
				l-0.08-0.193l-0.154,0.064L28.357,113.907z M27.598,108.156l-0.38,0.067l0.064,0.154l0.303-0.035L27.598,108.156z
				 M27.761,109.312l-0.059,0.294l0.048,0.117l0.279,0.02l0.068-0.164l0.325-0.09l0.036-0.241l-0.621,0.032L27.761,109.312z
				 M28.95,112.936l-0.064-0.154l-0.164-0.067l-0.232,0.096l0.213,0.184l0.17-0.025L28.95,112.936z M28.567,109.293l0.271-0.112
				l-0.064-0.155l-0.305-0.189l-0.189-0.238l-0.348,0.144L28.567,109.293z M29.37,111.223l-0.148-0.029l-0.277,0.205l-0.142-0.122
				l-0.317-0.003l0.05,0.341l0.258,0.074l0.485-0.247L29.37,111.223z M27.949,108.236l0.154-0.063l0.113-0.273l-0.309,0.128
				l-0.029,0.148L27.949,108.236z M28.589,110.325l0.03-0.148l-0.087-0.101l-0.131,0.01l0.134,0.215L28.589,110.325z
				 M28.482,108.106l0.104,0.138l0.504,0.017l-0.022-0.49l-0.103-0.138l-0.422,0.402L28.482,108.106z M29.356,108.467l0.193-0.08
				l-0.08-0.193l-0.193,0.08L29.356,108.467z M29.731,106.863l0.004-0.318l-0.107-0.364l-0.649,0.179l0.286,0.471l0.389,0.064
				L29.731,106.863z M37.623,130.11l-0.029,0.147l0.151,0.255l0.11,0.044l0.153-0.062l0.075-0.801l-0.086-0.101l-0.171,0.026
				l0.033,0.077l-0.268,0.337L37.623,130.11z M38.092,127.969l0.044-0.108l-0.166-0.293l-0.171,0.025l0.036,0.302l0.103,0.139
				L38.092,127.969z M38.89,130.218l0.49-0.022l0.051-0.202l-0.17,0.026l-0.385-0.384l-0.242-0.035l-0.029,0.147l0.238,0.354
				L38.89,130.218z M38.488,127.94l0.173,0.2l-0.077,0.031l0.16,0.386l0.249-0.057l0.463-0.736l0.278-0.206l0.11-0.498l-0.148-0.028
				l-0.502,0.208l-0.033,0.467l-0.139,0.102l-0.128-0.308l-0.125-0.084l-0.154,0.063l-0.119,0.367L38.488,127.94z M38.61,127.256
				l0.043-0.335l-0.232,0.097l0.096,0.232L38.61,127.256z M38.917,125.816l-0.083,0.125l-0.31,0.128l-0.077,0.575l0.093,0.007
				l0.046-0.109l0.241,0.036l0.357-0.556l0.177-0.12l0.179,0.65l0.318,0.004l0.155-0.608l-0.255-0.392l-0.294-0.059l-0.103-0.139
				l0.013-0.187l-0.411-0.01l-0.023,0.599L38.917,125.816z M38.257,124.008l0.267,0.206l0.341-0.051l-0.183-0.331l-0.363,0.105
				L38.257,124.008z M39.426,128.456l0.155-0.064l-0.064-0.153l-0.154,0.063L39.426,128.456z M39.978,129.132l-0.183,0.213
				l0.033,0.077l0.432-0.271l0.166-0.251l-0.08-0.192l-0.289,0.393L39.978,129.132z M38.568,122.248l-0.123,0.143l-0.012,0.187
				l0.202,0.051l-0.028-0.396l0.231-0.097l-0.112-0.269l-0.138,0.103l-0.053,0.202L38.568,122.248z M39.155,119.741l-0.009-0.131
				l-0.515-0.149l0.013-0.186l-0.417-0.46l-0.188-0.015l0.18,0.65l0.183,0.332l0.25,0.166l0.242,0.037l0.2-0.175L39.155,119.741z
				 M40.952,130.493l-0.148-0.029l-0.277,0.206l0.229,0.222l0.263-0.019L41,130.608L40.952,130.493z M38.082,116.612l0.138-0.104
				l-0.064-0.153l-0.187-0.014L38.082,116.612z M39.781,124.189l0.154-0.064l-0.061-0.473l-0.154,0.064l0.028,0.396L39.781,124.189z
				 M39.587,122.958l0.186,0.013l0.293-0.167l0.167-0.25l-0.019-0.265l-0.261,0.244l-0.248,0.058l-0.109-0.044l-0.059,0.295
				L39.587,122.958z M38.749,118.325l0.382,0.159l0.286-0.074l0.052-0.202l-0.17,0.025l-0.273-0.113l-0.396,0.028L38.749,118.325z
				 M38.204,112.984l0.226-0.003l-0.136-0.216l-0.17,0.026L38.204,112.984z M38.857,115.973l0.154-0.064l-0.064-0.154l-0.155,0.063
				L38.857,115.973z M38.769,115.104l0.301-0.035l-0.119-0.177l-0.147-0.028l-0.03,0.146L38.769,115.104z M39.702,117.569
				l-0.213-0.185l-0.17,0.025l0.229,0.223L39.702,117.569z M39.156,113.313l0.193-0.08l-0.08-0.192l-0.193,0.08L39.156,113.313z
				 M39.779,114.052l0.222-0.229l-0.019-0.263l-0.139,0.102l-0.097,0.312L39.779,114.052z M39.118,109.3l0.036-0.241l-0.173-0.199
				l-0.193,0.08l-0.045,0.11l0.064,0.154l0.218,0.09L39.118,109.3z M39.447,105.406l-0.089-0.325l-0.149-0.028l-0.061,0.07
				l0.205,0.277L39.447,105.406z M49.566,112.656l0.132-0.009l0.145-0.197l-0.113-0.269l-0.186-0.014l-0.1,0.086l0.09,0.325
				L49.566,112.656z"/>
			<path fill="#FFFFFF" d="M65.811,116.337l0.367,0.233l0.973-0.251l0.425-0.369l0.63-0.799l0.057-0.14l0.184-0.115l-0.027-0.065
				l0.131-0.055l0.437-0.989l0.184-0.575l0.271-0.459l-0.049-0.211l0.343-1.028l-0.029-0.256l0.28-0.809l0.216-0.129l0.289-0.043
				l0.776,0.292l0.276,0.386l0.076,0.276l-0.008,0.35l-0.115,0.279l0.004,0.383l-0.164,0.53l0.055,0.131l-0.455,1.037l-0.35,1.105
				l-0.243,0.525l-0.55,0.806l-0.687,0.94l-0.889,0.638l-0.857,0.626l-0.591,0.245l-0.566,0.12l-0.514,0.059l-0.411,0.402
				l-0.315,1.093l-0.434,1.18l-0.128,0.246l-0.17,0.147l-0.068,0.299l-0.15,0.102l-0.551,0.805l-0.023,0.126l-0.217,0.129
				l-0.057,0.139l-0.777,0.631l-0.345,0.375l-1.077,0.369l-0.498,0.284l-0.094-0.04l-0.361,0.151l-0.369,0.038l-0.14-0.058
				l-0.495,0.014l-1.159-0.287l-0.268-0.275l-0.158-0.012l-0.401-0.41l-0.14-0.058l-0.289-0.418l-0.375-0.346l-0.494-0.91
				l-0.199-0.571l-0.303-0.451l-0.084-0.851l-0.31-1.025l-0.292-1.072l-0.065-0.435l-0.008-1.035l-0.094-1.154l-0.015-1.148
				l-0.055-0.131l0.065-0.027l-0.049-0.211l0.058-0.139l-0.063-0.243l0.065-0.028l-0.068-0.164l0.065-0.027l-0.054-0.131
				l0.058-0.602l0.184-1.039l0.058-0.139l-0.068-0.165l0.099-0.041l0.013-0.429l0.104-0.121l-0.068-0.164l0.065-0.027l0.003-0.271
				l0.348-1.105l0.376-1.042l0.183-0.577l0.203-0.162l0.271-0.458l0.062-0.218l0.166-0.068l-0.028-0.066l0.216-0.127l0.153-0.373
				l0.184-0.114l0.493-0.667l0.131-0.055l0.025-0.125l0.479-0.237l0.47-0.351l0.479-0.237l0.552-0.151l1.079-0.18l0.277-0.077
				l0.628,0.125l1.069,0.441l0.92,0.733l0.415,0.444l0.586,0.949l0.153,0.551l-0.025,0.125l0.437,1.05l0.185,0.541l0.1,1.073
				l0.045,0.482l0.164,0.394l-0.079,0.918l0.297,0.992l-0.067,0.027l0.022,0.145l-0.172,0.418l0.032,0.449l-0.07,0.106l0.153,0.551
				l0.034,1.104L65.811,116.337z M56.511,114.698l0.131-0.055l-0.055-0.131l-0.13,0.055L56.511,114.698z M58.194,109.304
				l-0.348,1.106l-0.135,0.788l-0.117,0.086l-0.007,0.541l-0.114,0.28l0.062,0.243l-0.096,0.232l-0.064,1.143l-0.039,0.555
				l-0.083,0.265l0.027,0.99l0,0.461l0.202,0.764l-0.059,1.063l0.054,0.593l0.118,0.375l0.004,0.383l0.306,1.104l0.106,0.533
				l0.226,0.636l0.453,0.813l0.334,0.247l0.114,0.184l0.497,0.178l0.574-0.008l0.421-0.097l0.484-0.317l0.128-0.246l0.202-0.162
				l0.501-1.016l0.239-0.445l0.222-1.132l0.02-0.508l-0.143-0.249l-0.354-0.392l-0.125-0.023l-0.251-0.513l-0.236-0.941l0.084-0.072
				l-0.044-0.29l0.211-0.512l0.383-0.467l0.457-0.383l0.386-0.736l-0.001-1.115l-0.144-0.903l0.098-0.041l-0.146-1.094l0.045-0.172
				l-0.371-1.078l-0.208-1.146l-0.567-0.995l-0.396-0.49l-0.459-0.271l-0.165,0.068l-0.12-0.104l-0.145,0.021l-0.028-0.065
				l-0.656,0.272l-0.471,0.35l-0.345,0.374l-0.397,0.896l-0.121,0.359L58.194,109.304z M56.377,112.061l0.201-0.161l-0.001-0.192
				l-0.257,0.03l0.017,0.224L56.377,112.061z M56.54,110.415l0.205,0.03l-0.002-0.191l-0.191,0.003L56.54,110.415z M63.052,117.292
				l0.079,0.005l0.072-0.107l-0.055-0.131l-0.126-0.024l-0.052,0.06L63.052,117.292z M63.492,118.071l0.054,0.131l0.139,0.057
				l0.196-0.082l-0.122-0.295l-0.25,0.144L63.492,118.071z M63.591,116.645l-0.087-0.119l-0.172-0.044l-0.025,0.126l0.074,0.085
				l0.113-0.007L63.591,116.645z M64.059,119.066l0.193,0.188l0.225-0.016l-0.027-0.065l0.065-0.028l-0.194-0.188l-0.224,0.015
				l0.013,0.032L64.059,119.066z M63.918,117.894l0.079,0.006l0.017-0.238l-0.194-0.188l-0.052,0.06L63.918,117.894z
				 M64.296,117.505l0.095,0.23l0.285,0.036l0.024-0.126l-0.177-0.427l-0.164,0.068L64.296,117.505z M64.381,116.508l0.127-0.437
				l-0.021-0.146L64.36,115.9l-0.117,0.088l-0.069,0.298l0.128,0.217L64.381,116.508z M62.854,107.368l0.15,0.361l0.229-0.096
				l-0.161-0.202l0.043-0.172l0.16,0.011l-0.102-0.15l-0.254,0.22L62.854,107.368z M64.406,113.418l0.042-0.363l-0.256,0.031
				l-0.025,0.126l0.068,0.163l0.106,0.07L64.406,113.418z M64.925,116.705l0.068,0.165l0.159,0.012l0.188-0.194l-0.055-0.133
				l-0.158-0.01l-0.183,0.114L64.925,116.705z M64.375,112.047l0.025-0.126l-0.088-0.117l-0.224,0.017l0.068,0.164l0.152,0.09
				L64.375,112.047z M64.597,113.878l0.074,0.085l0.318,0.022l0.117-0.087l0.044-0.172l-0.251-0.05l-0.25,0.142L64.597,113.878z
				 M64.284,110.622l-0.136-0.328l0.024-0.126L64,110.125l-0.049,0.251l0.142,0.25l0.126,0.024L64.284,110.622z"/>
			<path fill="#FFFFFF" d="M77.404,109.79l0.087,0.117l0.203-0.16l0.087,0.117l0.021,1.068l-0.005,0.542l0.079,0.468l-0.099,0.042
				l0.051,0.863l0.258,1.086l0.106,0.532l0.197,0.381l0.26,0.16l0.101,0.151l0.266,0.082l0.388-0.084l0.424-0.368l0.384-0.467
				l0.454-1.036l0.128-0.246l-0.048-0.21l0.243-0.526l0.283-1.078l0.13-0.708l-0.049-0.21l0.282-0.617l-0.068-0.164l0.065-0.028
				l-0.055-0.132l0.222-1.131l0.125-1.091l0.159-0.913l0.125-0.628l0.424-0.369l0.295-0.123l0.771,0.373l0.224,0.446l-0.078,1.109
				l-0.091,0.614l-0.097,0.232l-0.063,1.143l-0.178,0.959l-0.25,1.065l-0.215,0.782l0.031,0.258l-0.442,1.068l-0.121,0.819
				l-0.547,0.998l-0.594,0.978l-0.597,0.787l-0.653,0.465l-1.169,0.522l-0.131,0.055l-0.106-0.071l-0.421,0.098l-1.045-0.296
				l-0.646-0.349l-0.248-0.318l-0.394-0.299l-0.303-0.451l-0.332-1.171l-0.305-1.104l-0.073-0.548l-0.083-0.196l0.039-0.092
				l-0.147-0.633l-0.038-0.831l0.066-0.027l0.001-0.924l-0.008-0.574l-0.092-0.501l0.051-1.175l0.08-0.457l-0.062-0.243l0.096-0.232
				l-0.153-0.552l0.072-0.106l-0.08-0.93l-0.179-0.618l-0.266-0.083l-0.054-0.131l-0.159-0.011l-0.068-0.165l-0.145,0.022
				l-0.181-0.156l-0.164,0.068l-0.836-0.346l-0.257,0.03l-0.337,0.486l0.001,1.115l0.03,0.257l-0.139,0.404l0.068,0.165
				l-0.066,0.027l0.055,0.131l-0.066,0.027l0.068,0.164L71.8,107.23l0.049,0.21l-0.077,0.649l0.04,0.098l-0.065,0.028l-0.091,1.077
				l-0.085,0.536l0.068,0.165l-0.066,0.027l0.013,0.495l-0.071,0.106l0.036,0.178l-0.212,0.511l-0.188,0.193l-0.341,0.104
				l-0.484-0.145l-0.367-0.234l-0.128-0.214l-0.079-0.006l-0.027-0.528l0.141-0.866l-0.071-0.355l0.145-0.484l-0.051-0.864
				l0.083-0.264l-0.068-0.165l0.15-0.563l-0.031-0.91l0.057-0.139l-0.035-0.178l0.084-0.073l-0.057-0.323l0.068-0.299l-0.048-0.21
				l0.051-0.06l-0.151-1.015l-0.356-0.391l-0.365-0.233l-0.114-0.184l-0.099,0.041l-0.055-0.131l-0.065,0.027l-0.284-0.498
				l-0.065,0.027l-0.264-0.544l-0.167-0.586l-0.033-0.448l0.196-0.735l-0.03-0.257l0.097-0.232l-0.03-0.256l0.27-0.458l0.151-0.563
				l0.165-0.068l0.096-0.233l0.41-0.401l0.903-0.144l0.106,0.071l0.263-0.11l0.708,0.131l0.054,0.131l0.159,0.011l0.364,0.503
				l0.086,0.579l-0.059,1.063l0.038,0.831l-0.003,0.271l0.271,0.465l0.644,0.347l0.225-0.015l1.068,0.441l1.088,0.395l0.843,0.457
				l0.487,0.336l0.222,0.254l0.523,1.168l0.256,0.432l0.105,0.533l-0.031,1.13l-0.072,0.568l0.095,1.154l-0.055,0.331l0.062,0.243
				l-0.058,0.14l0.036,0.178l-0.329,0.136l-0.039,0.092L77.404,109.79z M70.317,101.997l-0.142-0.248l-0.177,0.035l-0.011,0.159
				l0.265,0.083L70.317,101.997z M69.785,99.603l0.131-0.054l-0.055-0.132L69.73,99.47L69.785,99.603z M73.888,104.014l0.188,0.269
				l0.26-0.3l-0.022-0.146l-0.125-0.023l-0.25,0.141L73.888,104.014z M76.245,112.002l-0.058-0.323l-0.164,0.068l-0.024,0.126
				l0.088,0.118L76.245,112.002z M76.381,110.292l0.002-0.272l-0.403-0.138l-0.151,0.1l0.155,0.282l0.227,0.174l-0.01,0.159
				l0.106,0.071l0.309-0.09l0.26,0.161l0.145-0.021l-0.188-0.269l-0.391-0.108L76.381,110.292z M75.19,103.628l-0.156-0.282
				l-0.193-0.189l-0.191,0.003l-0.012,0.158l0.143,0.25l0.344,0.087L75.19,103.628z M76.357,111.07l0.126,0.025l0.295-0.123
				l-0.227-0.175l-0.191,0.003l0.017,0.224L76.357,111.07z M75.247,103.951l-0.025,0.126l0.143,0.25l0.232,0.095l-0.06-0.513
				l-0.074-0.085l-0.205-0.031l0.027,0.065L75.247,103.951z M76.519,108.31l-0.125-0.025l-0.175,0.226l0.062,0.245l0.618-0.18
				l-0.016-0.687l-0.027-0.065l-0.298-0.069l-0.024,0.126l0.077,0.275l-0.025,0.126L76.519,108.31z M75.806,105.297l0.022,0.145
				l0.299,0.26l0.058,0.322l0.361-0.149l-0.1-0.15l-0.191,0.003l-0.156-0.282l-0.024-0.336l-0.249,0.14L75.806,105.297z
				 M76.667,107.556l0.197-0.082l-0.073-0.085l-0.191,0.002L76.667,107.556z M76.233,105.12l0.282-0.156l0.044-0.172l-0.289,0.044
				l-0.078,0.187L76.233,105.12z"/>
			<path fill="#FFFFFF" d="M84.974,94.484l-0.006,0.542l0.156,0.281l0.14,0.059l0.224-0.016l0.377-0.388l0.669-0.894l0.265-0.38
				l0.38-0.195l0.058-0.14l0.859-0.434l0.104-0.121l0.796-0.215l0.892,0.015l0.065-0.027l0.545,0.197l0.458,0.271l0.421,0.364
				l0.263,0.353l0.417,1.096l0.26,1.277l0.128,1.14l0.001,1.115l-0.045,1.096l-0.095,0.232l-0.012,1.083l-0.122,0.82l-0.186,0.386
				l-0.003,0.27l-0.515,0.984l0.027,0.065l-0.328,0.599l-0.132,0.055l-0.115,0.278l-0.688,0.749l-0.947,0.777l-0.302,0.202
				l-0.221,0.669l0.396,0.952l0.515,1.056l0.121,0.104l0.218,0.525l0.393,0.298l0.572,0.263l0.615,0.091l0.486-0.125l0.413-0.21
				l0.646-0.576l0.2-0.353l0.202-0.161l0.342-0.565l0.346-0.374l0.395-0.626l0.117-0.088l0.069-0.298l0.311-0.36l0.557-1.347
				l0.085-0.535l0.104-0.122l0.099-0.502l0.441-1.068l-0.068-0.164l0.104-0.121l0.003-0.27l0.315-1.094l0.158-1.104l0.036-0.284
				l0.167-0.34l0.17-0.146l0.454-0.112l0.771,0.373l0.218,0.526l-0.072,0.569l-0.165,0.529l0.055,0.131l-0.315,1.093l0.048,0.21
				l-0.233,0.829l-0.137,0.134l0.049,0.21l-0.311,1.014l-0.107,0.391l-0.487,1.05l-0.423,1.021l-0.407,0.593l0.002,0.191
				l-0.184,0.114l-0.259,0.763l-0.132,0.055l-0.025,0.126l-0.169,0.146l-0.011,0.159l-0.396,0.434l-0.219,0.399l-0.762,0.855
				l-0.861,0.704l-0.49,0.396l-0.512,0.251l-1.053,0.245l-0.401,0.051l-0.199-0.109l-0.164,0.068l-0.122-0.104l-0.256,0.029
				l-0.212-0.142l-0.271-0.003l-0.279-0.114l-0.254-0.241l-0.246-0.128l-0.608-0.632L88,111.121l-0.664-0.763l-0.207-0.221
				l-0.448-0.892l-0.476-1.148l-0.371-1.078l-0.153-0.553l0.072-0.106l-0.055-0.131l0.099-0.503l0.277-0.538l0.476-0.43l0.534-0.106
				l0.928-0.731l0.098-0.041l-0.027-0.065l0.164-0.069l-0.027-0.065l0.131-0.055l-0.027-0.065l0.184-0.114l0.58-1.012l0.213-0.781
				l0.103-0.311l-0.055-0.132l0.115-0.279l-0.006-1.036l0.044-0.634l-0.096-0.692l0.066-0.028l-0.067-0.164l0.065-0.027
				l-0.054-0.132l0.065-0.027l-0.049-0.21l0.028-0.396l-0.09-0.309l0.025-0.126l-0.096-0.231l0.017-0.237l-0.335-0.438l-0.525-0.244
				l-0.238-0.016l-0.539,0.185l-0.517,0.33l-0.443,0.416l-0.714,0.875l-0.303,0.473l-0.422,1.02l-0.148,0.293l-0.097,1.156
				l-0.046,0.443l0.068,0.165l-0.066,0.028l0.054,0.13l-0.099,0.041l0.069,0.165l-0.065,0.028l0.087,0.578l-0.065,0.028l0.061,1.167
				l-0.006,0.541l-0.075,0.377l0.154,2.13l0,0.924l-0.007,1.003l0.041,0.561l-0.081,0.918l0.16,1.126l-0.006,1.004l-0.115,0.278
				l0.082,0.197l-0.023,0.316l0.055,0.131l-0.009,0.812l-0.307,0.743l-0.884,0.56L83.35,115.4l-0.565,0.12l-0.544-0.198
				l-0.152-0.552l-0.007-0.573l-0.101-0.613l0.032-1.128l0.058-0.14l-0.03-0.257l0.115-0.279l-0.112-0.916l-0.015-1.148l-0.04-0.56
				l0.099-0.503l-0.172-0.968l0.072-0.106l-0.055-0.131l0.072-0.569l-0.065-0.435l0.115-0.278l-0.065-0.436l0.109-0.199
				l-0.132-1.061l-0.049-1.134l0.039-0.555l-0.051-0.402L82,102.147l-0.051-0.402l0.072-0.107l-0.03-0.256l0.069-0.298l-0.085-0.388
				l0.072-0.108l-0.182-0.809l0.095-0.231l-0.062-0.244l0.025-0.587l-0.072-0.546l0.033-0.476l-0.05-0.21l0.058-0.14l-0.086-1.041
				l0.116-0.278l-0.044-0.29l0.053-0.522l-0.061-1.167l0.146-0.946l-0.152-0.553l0.044-1.096l-0.007-0.574l-0.166-0.584l0.02-0.509
				l0.151-0.563l-0.043-0.291l0.32-0.71l0.99-0.488l0.558-0.232l0.574-0.008l0.265,0.083l0.068,0.165l0.126,0.024l0.161,0.203
				l0.155,0.744l-0.115,0.278l0.096,0.23l-0.009,0.35l-0.095,0.232l0.061,0.243l-0.067,0.299l0.098,0.42l-0.084,0.074l0.084,0.389
				l-0.096,0.232l0.077,0.275l-0.058,0.14l0.083,0.388l-0.005,0.542l-0.083,0.265l0.035,0.177l-0.065,0.027l0.101,1.075
				L84.974,94.484z M83.447,111.743l0.024-0.126l-0.087-0.118l-0.126-0.024l-0.011,0.159l0.134,0.137L83.447,111.743z
				 M83.641,104.89l-0.096-0.23l-0.159-0.011l-0.051,0.061l0.021,0.145l0.213,0.143l0.066-0.028L83.641,104.89z M82.937,101.065
				l0.131-0.055l-0.055-0.132l-0.131,0.055L82.937,101.065z M84.156,105.021l0.132-0.055l-0.069-0.165l-0.131,0.055L84.156,105.021z
				 M83.752,100.995l0.166-0.069l-0.03-0.256l-0.131,0.054l-0.031,0.205L83.752,100.995z M84.007,99.659l0.284,0.498l0.361-0.15
				l-0.101-0.15l0.096-0.695l-0.134-0.137l-0.23,0.096l0.102,0.15l-0.175,0.227l-0.184,0.115L84.007,99.659z M83.679,91.367
				l0.131-0.055l-0.095-0.229l-0.132,0.054L83.679,91.367z M87.278,107.997l0.082,0.197l0.165-0.068l0.071-0.105l-0.063-0.244
				l-0.245-0.129l-0.198,0.082l0.009,0.111L87.278,107.997z M87.972,108.555l0.131-0.054l0.011-0.159l-0.224,0.017L87.972,108.555z
				 M87.826,106.537l0.17-0.147L88,106.119l-0.126-0.024l-0.175,0.227l0.068,0.165L87.826,106.537z M88.581,109.186l0.068,0.166
				l0.265,0.082l0.215-0.128l-0.067-0.165l-0.106-0.071l-0.237-0.017l-0.085,0.073L88.581,109.186z M89.738,95.393l0.125,0.023
				l0.229-0.095l0.006-0.079l-0.251-0.05l-0.099,0.041L89.738,95.393z M89.747,94.579l0.096,0.23l0.397,0.028l0.152,0.09
				l0.016,0.224l0.134,0.137l-0.024,0.126l0.142,0.248l0.342-0.102l-0.055-0.132l-0.2-0.11l-0.041-0.099l0.058-0.14l-0.063-0.243
				l-0.619-0.474l-0.315,0.169L89.747,94.579z M91.095,100.139l0.029,0.257l0.241,0.207l0.143-0.212l0.003-0.27l-0.199-0.572
				l-0.235-0.288l-0.257,0.031l0.249,0.782L91.095,100.139z M90.457,96.287l0.131-0.055l0.024-0.126L90.53,95.91l-0.151,0.1
				l-0.043,0.173L90.457,96.287z M91.189,98.33l0.088,0.117l0.218,0.063l0.148,0.169l0.131-0.055l0.142-0.213l-0.062-0.243
				l-0.43-0.015l-0.184,0.115L91.189,98.33z M91.685,96.929l-0.256,0.03l0.015,0.225l0.146-0.022l0.227-0.287l0.164-0.067
				l0.022-0.318l-0.508-0.02l0.118,0.375L91.685,96.929z"/>
			<path fill="#FFFFFF" d="M139.479,88.293l-0.903,0.875l-0.332,0.725l-0.239,0.19l-0.189,0.305l-0.415,0.31l-0.429,0.493
				l-1.234,0.513l-1.284,0.399l-0.93,0.158l-0.277,0.206l-0.167,0.251l-0.161,0.7l0.111,1.358l-0.011,0.954l0.117,1.265
				l-0.111,0.272l0.072,0.286L133,97.866l0.047,1.203l0.066,0.922l-0.093,0.538l0.191,0.463l-0.167,0.25l-0.004,0.319l-0.356,0.556
				l-0.303,0.034l-0.919-0.251l-0.136-0.215l-0.186-0.013l-0.137-0.217l-0.326-0.134l-0.868-0.999l-0.302-0.509l-0.166-0.834
				l0.077-0.032l-0.063-0.154l0.076-0.032l-0.079-0.193l0.115-0.048l-0.064-0.155l0.077-0.032l-0.14-1.208l-0.08-0.738l0.11-0.497
				l-0.027-1.483l-0.025-1.257l-0.208-0.502l-0.164-0.068l-0.049-0.115l-0.327-0.136l-0.372-0.026l-0.155,0.064l-0.048-0.116
				l-0.495,0.116l-0.165-0.068l-0.247,0.058l-0.048-0.116l-0.154,0.064l-1.393-0.191l-0.488,0.022l-0.328-0.135l-0.155,0.064
				l-0.03-0.077l-0.193,0.08l-0.033-0.077l-0.154,0.064l-0.048-0.116l-0.972-0.05l-0.124-0.083l-0.271,0.113l-0.124-0.084
				l-0.419,0.083l-0.434,0.588l-0.136,0.328l0.057,0.248l-0.121,0.141l0.064,0.155l-0.077,0.032l0.08,0.193l-0.117,0.048
				l0.013,0.357l-0.193,0.624l0.081,0.193l-0.206,0.266l0.034,0.303l-0.552,1.18l-0.519,1.256L119.57,99.1l-0.357,0.555
				l-0.483,0.472l-0.15,0.29l-0.178,0.119l-0.029,0.148l-0.215,0.135l-0.067,0.165l-0.51,0.301l0.032,0.079l-0.962,0.626
				l-0.222,0.227l-2.393,0.994l-1.38,0.166l-0.653-0.046l-1.303,0.134l-0.103-0.138l-0.723-0.107l-0.283-0.244l-0.868-0.454
				l-0.103-0.138l-0.951-0.33l-0.08-0.193l-0.117,0.048l-0.064-0.154l-0.841-0.828l-0.35-0.624l-0.346-0.399l-0.328-0.679
				l-0.124-0.627l-0.225-0.541l0.043-0.108l-0.163-0.612l-0.001-1.311l0.371-1.285l0.497-1.202l0.489-1.11l0.154-0.064l-0.047-0.115
				l0.438-0.363l0.672-0.778l1.14-0.744l0.515-0.396l1.164-0.574l1.306-0.453l1.146-0.294l1.055-0.076l0.788-0.282l1.312-0.002
				l1.352-0.019l0.301-0.034l0.293-0.168l0.184-0.211l0.14-0.646l-0.044-0.979l0.061-0.069l-0.064-0.155l0.068-0.708l-0.056-1.335
				l0.026-0.374l-0.095-1.318l0.006-0.636l-0.134-0.759l0.077-0.032l0.042-0.335l-0.089-0.324l0.112-0.273l-0.063-0.154l0.052-1.29
				l0.085-0.125l-0.109-0.589l-0.124-1.714l0.1-0.63l-0.056-1.335l0.049-0.428l-0.067-0.379l0.053-1.289l-0.137-0.984l-0.618-0.288
				l-0.278-0.019l-0.833,0.392l-0.11-0.045l-1.251,0.474l-2.6,0.719l-0.418,0.083l-0.048-0.117l-1.223,0.329l-1.345,0.467
				l-1.315,0.321l-1.075,0.356l-1.109,0.595l-0.618,0.257l-0.998,0.867l-0.117,0.048l0.049,0.116l-0.254,0.15l-0.589,1.197
				l-0.297,1.027l-0.068,0.165l0.064,0.154l-0.125,0.46l0.349,1.167l0.186,0.557l0.541,0.863l0.321,0.229l0.276,0.338l0.242,0.036
				l0.298,0.283l1.067,0.281l0.209-0.042l0.033,0.077l0.489-0.021L108.211,82l1.107-0.822l0.375-0.518l0.483-0.472l0.604-0.07
				l1.029,0.296l0.134,0.216l0.306,0.19l0.308,0.416l-0.066,0.164l0.031,0.62l-0.325,0.633l-0.499,0.434l-0.03,0.148l-0.238,0.189
				l-0.067,0.164l-0.992,0.774l-1.203,0.59l-1.283,0.398l-0.348,0.145l-0.109-0.046l-0.271,0.112l-1.218,0.009l-1.112-0.171
				l-1.256-0.519l-0.782-0.355l-0.173-0.199l-0.148-0.029l-0.292-0.376l-0.077,0.031l-0.45-0.537l-0.478-0.39l-0.34-0.492
				l-0.553-1.22l-0.198-0.37l0.019-0.28l-0.118-0.177l-0.054-0.565l-0.211-0.727l-0.057-0.791l0.165-1.021l-0.019-0.262l0.142-0.422
				l-0.064-0.155l0.097-0.311l0.606-1.157l0.219-0.453l0.216-0.135l-0.048-0.116l0.193-0.08l-0.032-0.077l0.154-0.064l0.112-0.273
				l0.554-0.411l-0.033-0.078l0.976-0.812l0.007-0.092l0.8-0.47l-0.032-0.076l0.586-0.335l0.182-0.212l1.166-0.574l1.252-0.475
				l1.066-0.262l0.11,0.046l1.261-0.344l1.292-0.265l0.627-0.125l0.504,0.018l1.236-0.514l1.261-0.343l1.306-0.452l1.242-0.607
				l1.039-0.658l0.538-0.45l0.39-0.478l0.576-1.01l0.28-0.523l0.154-0.064l-0.031-0.077l0.492-0.339l0.295-0.486l0.194-0.081
				l0.244-0.282l0.617-0.256l0.357-0.012l0.562,0.264l0.418,0.46l0.256,0.618l0.036,0.301l-0.194,0.624l-0.573,1.235l-0.427,1.262
				l-0.06,0.07l0.08,0.194l-0.1,0.087l0.062,0.155l-0.166,0.25l-0.019,1.048l-0.042,1.421l0.001,1.312l0.102,0.681l-0.114,0.048
				l0.08,0.194l-0.077,0.032l0.057,1.334l0.008,0.676l-0.067,0.164l0.064,0.154l-0.069,1.251l0.104,0.683l-0.069,0.164l0.049,0.66
				l-0.145,0.195l0.063,0.154l-0.077,0.032l0.146,0.573l-0.061,0.07l0.048,0.116l-0.083,0.126l0.141,0.665l-0.046,0.652l0.062,0.474
				l-0.085,0.124l0.057,0.248l-0.079,0.351l0.018,1.352l0.092,1.092l-0.169,1.338l0.195,1.232l-0.084,0.125l0.037,1.071l0.342,0.493
				l1.021,0.391l1.235,0.03l0.265-0.019l0.031,0.077l0.318,0.003l0.327,0.136l0.489-0.022l0.289,0.151l1.284,0.146l1.009,0.033
				l0.54-0.224l0.307-0.354l-0.022-1.032l-0.002-1.312l0.102-0.631l-0.096-1.318l-0.012-1.443l-0.017-1.351l0.014-1.273l-0.096-1.32
				l0.045-0.109l-0.058-0.248l0.068-0.163l-0.063-0.699l0.045-0.109l-0.064-0.155l0.112-0.272l-0.137-0.984l0.084-0.126
				l-0.102-0.681l0.058-0.296l-0.095-1.318l0.13-1.321l-0.111-1.357l0.14-1.189l-0.172-1.288l-0.065-0.153l0.116-0.048l-0.078-1.28
				l-0.042-0.209l0.077-0.032l-0.08-0.193l0.115-0.048l-0.064-0.154l0.077-0.032l-0.15-1.342l-0.004-0.45l0.083-0.125l-0.074-0.286
				l0.123-0.685l0.265-0.562l0.492-0.341l1.312-0.546l0.722-0.117l0.553,0.132l0.212,0.184l0.179,0.65l-0.123,0.685l0.012,0.355
				l-0.112,0.274l0.097,0.775l0.066,0.379l-0.008,0.637l-0.135,0.328l0.063,1.241l0.111,1.357l-0.024,1.142l-0.081,0.351
				l0.135,1.302l-0.047,0.652l0.103,0.682l-0.062,1.158l0.058,0.248l-0.112,0.273l0.058,0.791l0.096,0.232l-0.084,0.125l0.104,0.364
				l-0.038,1.103l-0.098,0.313l0.061,0.472l-0.112,0.273l0.064,0.155l-0.023,0.598l0.134,1.303l-0.036,1.328l0.04,1.295l0.09,0.326
				l-0.136,0.328l0.057,1.334l-0.007,0.637l0.064,0.154l-0.113,0.273l0.067,0.379l-0.046,0.11l0.081,0.193l-0.136,0.328l0.156,1.248
				l0.347,0.399l0.437,0.181l0.573-0.148l1.287-0.715l1.068-0.807l0.739-0.941l0.536-1.218l0.081-0.351l0.189-0.306l-0.025-0.17
				l0.173-0.344l-0.011-0.357l0.138-0.103l0.278-1.292l0.097-0.311l-0.041-0.209l0.077-0.033l0.146-1.282l0.138-0.646l0.151-0.29
				l0.656-0.272l0.318,0.002l0.595,0.341l0.302,0.508l-0.014,0.731l-0.208,1.354l-0.022,0.598l-0.172,0.568l-0.154,1.151
				l-0.097,0.312l0.041,0.209l-0.48,1.241l-0.003,0.318l-0.346,0.37l-0.289,0.935L139.479,88.293z M110.428,92.893l-0.998,0.867
				l-0.473,0.604l-0.53,1.124l-0.058,0.84l0.076,0.511l-0.033,0.467l0.234,0.672l0.729,1.1l0.691,0.573l0.251,0.167l0.716,0.201
				l0.839,0.059l0.049,0.115l0.325-0.089l0.582-0.016l0.154-0.064l0.125,0.083l0.634-0.217l1.248-0.7l1.062-0.713l0.626-0.893
				l-0.003-0.226l0.236-0.189l0.126-0.46l0.117-0.048l0.212-0.36l0.123-0.685l0.354-0.781l0.06-0.839l0.187-0.53l-0.025-0.17
				l0.121-0.141l-0.063-0.154l0.156-0.608l-0.039-0.529l-0.103-0.137l-0.258-0.075l-0.135-0.216l-0.312-0.097l-0.473,0.062
				l-0.032-0.078l-0.154,0.064l-0.032-0.077l-0.193,0.08l-0.031-0.078l-0.154,0.064l-0.049-0.114l-0.192,0.08l-0.032-0.077
				l-1.209,0.14l-1.294,0.266l-1.376,0.39l-1.583,0.658l-0.123,0.142L110.428,92.893z M114.396,101.792l-0.147-0.029l-0.309,0.128
				l0.103,0.14l0.302-0.036l0.084-0.125L114.396,101.792z M117.666,99.528l0.139-0.103l0.052-0.202l-0.216,0.134l-0.007,0.093
				L117.666,99.528z M118.279,97.734l0.139-0.103l-0.064-0.154l-0.188-0.013L118.279,97.734z M119.224,96.301l0.221-0.227
				l-0.018-0.264l-0.638-0.007l0.386,0.383L119.224,96.301z M118.392,89.178l-0.098,0.312l-0.207,0.267l-0.096,0.312l0.025,0.17
				l0.352,0.081l0.454-0.868l0.332-0.184l-0.104-0.137l-0.325,0.089l-0.141-0.123l0.122-0.142l0.035-0.241l-0.348,0.145l0.003,0.225
				L118.392,89.178z M118.967,92.741l-0.129-0.309l-0.209,0.042l0.064,0.154l0.181,0.107L118.967,92.741z M119.646,89.472
				l-0.486,0.791l0.236,0.354l0.194-0.08l0.073-0.257l0.1-0.088l-0.127-0.308l0.278,0.019l0.196,0.689l0.102,0.138l0.204,0.052
				l0.189-0.305l0.059-0.296l0.192-0.08l-0.209-0.503l-0.91-0.119L119.646,89.472z M119.833,91.34l-0.014,0.188l0.087,0.099
				l-0.23,0.096l0.08,0.193l0.365,0.119l0.123-0.141l0.025-0.373l0.368-0.424l-0.064-0.154l-0.478,0.379l-0.17,0.024L119.833,91.34z
				 M119.582,88.774l-0.062,0.07l0.174,0.2l0.503-0.208l0.079-0.351l-0.185-0.013l-0.277,0.206l-0.033-0.077l-0.341,0.05
				l-0.006,0.094l0.076-0.033L119.582,88.774z M119.416,87.938l0.192-0.081l0.074-0.257l-0.229-0.222l-0.187-0.013l-0.004,0.318
				l0.104,0.139L119.416,87.938z M119.425,85.671l-0.104-0.138l-0.201-0.052l-0.029,0.148l0.086,0.099l0.133-0.009L119.425,85.671z
				 M120.469,91.891l0.01,0.132l0.443,0.087l0.113-0.273l-0.097-0.231l-0.448,0.231L120.469,91.891z M119.376,86.099l0.098,1
				l0.624-0.351l0.074-0.257l-0.111-0.269l-0.223,0.228l-0.25-0.167l0.074-0.257l-0.05-0.117l-0.215,0.135L119.376,86.099z
				 M119.2,83.5l0.08,0.193l0.139-0.104l-0.057-0.248l-0.085,0.126L119.2,83.5z M120.258,87.677l0.17-0.025l0.224-0.227
				l-0.033-0.078l-0.425,0.177l-0.007,0.094L120.258,87.677z M119.714,84.736l0.225-0.004l-0.135-0.215l-0.154,0.064L119.714,84.736
				z M121.033,90.525l0.447-0.232l-0.01-0.131l-0.582,0.016L121.033,90.525z M120.835,89.068l0.155-0.064l-0.065-0.154l-0.154,0.064
				L120.835,89.068z M120.781,88.501l0.222-0.227l-0.02-0.265l-0.378,0.068L120.781,88.501z M119.902,83.117l0.077-0.031
				l0.397,0.741l0.215-0.136l0.031-0.147l-0.296-0.602l0.268-0.881l-0.087-0.099l-0.132,0.008l-0.305,0.354l-0.297-0.059
				l-0.192,0.08l0.066,0.38l0.183,0.331L119.902,83.117z M120.936,84.951l0.045-0.108l-0.064-0.154l-0.311-0.097l0.034,0.301
				l0.22,0.091L120.936,84.951z M120.174,81.375l0.201-0.173l-0.13-0.31l-0.247,0.059l0.105,0.363L120.174,81.375z M119.904,78.002
				l0.341-0.05l0.168-0.251l-0.048-0.116l-0.349,0.145l-0.144,0.195L119.904,78.002z M119.963,77.163l0.064,0.155l0.396-0.029
				l-0.167-0.293l-0.263,0.019l0.031,0.077L119.963,77.163z M119.405,69.609l0.139-0.103l0.065-0.39l-0.319-0.004l-0.029,0.148
				L119.405,69.609z M119.538,68.512l0.228,0.223l0.184-0.212l-0.096-0.231l-0.292,0.167L119.538,68.512z M130.443,94.219
				l0.194-0.08l0.066-0.164l-0.128-0.309l-0.312-0.097l0.146,0.347l0.003,0.225L130.443,94.219z M130.301,90.386l-0.147-0.029
				l-0.503,0.208l0.08,0.193l0.126,0.083l0.171-0.025l0.238-0.189l0.028-0.148L130.301,90.386z M131.639,95.896l-0.331-0.36
				l-0.286,0.074l0.08,0.192l0.305,0.19l0.172-0.025L131.639,95.896z M131.02,92.442l-0.01-0.131l-0.213-0.185l-0.187-0.013
				l-0.271,0.112l0.268,0.207l0.317,0.003L131.02,92.442z M130.496,91.618l0.154-0.064l-0.064-0.155l-0.154,0.064L130.496,91.618z
				 M131.46,91.761l-0.064-0.155l-0.164-0.067l-0.23,0.096l0.063,0.154l0.318,0.004L131.46,91.761z M130.749,89.068l0.275,0.338
				l0.094,0.007l-0.134-0.759l-0.154,0.064l-0.114,0.273L130.749,89.068z M130.988,88.336l-0.229-0.766l-0.186,0.53l0.149,0.255
				l0.188,0.013L130.988,88.336z M131.339,90.272l0.223-0.229l-0.028-0.396l-0.303,0.035v0.543L131.339,90.272z M131.875,88.51
				l-0.119-0.177l0.071-0.483l0.139-0.102l-0.331-0.36l-0.164-0.068l-0.192,0.081l0.144,0.89l0.229,0.222l0.147,0.029L131.875,88.51
				z M131.453,86.513l-0.104-0.138l-0.202-0.052l-0.029,0.147l0.087,0.1l0.132-0.01L131.453,86.513z M131.321,85.978l0.318,0.004
				l0.061-0.071l-0.118-0.176l-0.148-0.03l-0.145,0.196L131.321,85.978z M131.156,84.6l0.224-0.003l0.014-0.187l-0.24-0.036
				l0.009,0.132L131.156,84.6z M132.709,90.518l-0.206,0.266l0.109,0.046l0.138-0.103l0.029-0.148L132.709,90.518z"/>
			<path fill="#FFFFFF" d="M150.322,68.49l0.193,0.189l0.117,0.375l0.005,0.845l-0.099,0.041l0.068,0.164l-0.066,0.027l0.069,0.163
				l-0.066,0.028l0.056,0.131l-0.067,0.489l0.04,1.022l0.044,0.289l-0.102,0.312l0.021,1.068l-0.051,0.251l0.187,1.001l-0.078,1.109
				l0.009,0.575l-0.058,0.139l0.119,1.029l0.007,0.574l-0.085,0.073l0.068,0.165l-0.066,0.027l0.055,0.131l-0.098,0.041l0.067,0.164
				l-0.064,0.027l0.054,0.131l-0.066,0.027l0.068,0.165l-0.065,0.027l0.061,0.515l-0.018,0.237l0.104,0.341l-0.053,0.061
				l0.116,0.836l0.032,0.91l0.066,0.435l-0.066,0.027l0.146,1.094l0.205,0.492l0.309,0.372l0.471,0.304l0.29-0.044l0.061,0.054
				l0.484-0.317l0.677-0.781l0.068-0.297l0.184-0.114l0.087-0.345l0.132-0.055l0.455-1.037l-0.05-0.21l0.328-0.599l-0.029-0.256
				l0.198-0.544l-0.055-0.131l0.454-1.036l0.176-0.688l-0.062-0.245l0.104-0.119l-0.034-0.179l0.103-0.12l-0.054-0.131l0.124-0.166
				l-0.068-0.165l0.136-0.133l-0.054-0.132l0.071-0.106l-0.017-0.223l0.118-0.55l-0.063-0.243l0.119-0.087l-0.017-0.225l0.071-0.106
				l-0.055-0.132l0.197-0.544l0.378-0.387l0.416-0.019l0.511,0.211l0.326,0.326l0.078,0.276l-0.001,0.462l-0.097,0.232l0.063,0.242
				l-0.115,0.28l-0.11,1.123l-0.053,0.522l-0.129,0.246l0.023,0.336l-0.314,1.092l-0.25,1.067l-0.44,1.069l-0.051,0.251
				l-0.232,0.365l-0.017,0.238l-0.488,1.049l-0.453,1.036l-0.133,0.055l0.027,0.065l-0.375,0.578l-0.165,0.068l0.028,0.066
				l-0.457,0.382l-0.96,0.745l-0.465,0.269l-0.769,0.282l-0.989,0.027l-0.134-0.137l-0.211,0.05l-0.525-0.244l-0.157-0.011
				l-0.389-0.379l-0.427-0.284l-0.298-0.069l-0.183,0.115l-0.211,0.51l-0.188,0.195l-0.011,0.159l-0.202,0.16l-0.05,0.253
				l-0.203,0.16l-0.129,0.246l-0.183,0.114l0.027,0.066l-0.176,0.227l-0.024,0.125l-0.133,0.055l0.028,0.067l-0.668,0.43
				l-0.776,0.631l-0.517,0.33l-0.605,0.213l-0.903-0.049l-0.238-0.016l-0.849-0.377l-0.329-0.327l-0.065,0.027l-0.743-0.768
				l-0.567-0.996l-0.236-0.478l-0.306-1.104l-0.027-0.066l0.098-0.041l-0.259-1.086l-0.25-0.973l-0.069-0.818l-0.122-1.22
				l-0.138-1.905l0.065-0.028l-0.068-0.164l0.066-0.027l-0.055-0.131l0.065-0.027l-0.068-0.165l0.099-0.042l-0.054-0.131
				l0.064-0.027l-0.105-0.533l0.053-0.061l-0.088-0.58l0.066-0.027l-0.052-0.402l0.07-0.106l-0.036-0.178l0.125-0.166l-0.055-0.131
				l0.104-0.121l-0.068-0.165l0.138-0.133l-0.068-0.164l0.104-0.121l0.021-0.969l0.361-1.075l0.003-0.271l0.129-0.245l0.009-0.351
				l0.138-0.595l0.257-0.492l0.018-0.239l0.202-0.16l0.068-0.299l0.345-0.374l0.096-0.231l0.132-0.055l0.722-0.762l0.387-0.275
				l1.144-0.399l0.432-0.255l1.078,0.09l0.914,0.352l0.907,0.7l0.437,0.126l0.466-0.271l0.553-0.614l0.121-0.359l0.163-0.068
				l-0.027-0.065l0.397-0.435l0.319-0.247l0.006-0.08l0.466-0.27l0.236,0.016L150.322,68.49z M141.133,81.197l-0.225,0.018
				l0.021,0.145l0.126,0.024l0.104-0.12L141.133,81.197z M141.815,83.955l0.117-0.087l0.043-0.173l-0.183,0.115l-0.006,0.078
				L141.815,83.955z M145.524,86.955l0.024-0.126l0.229-0.096l0.012-0.158l0.909-1.147l0.082-0.265l0.117-0.088l0.349-1.106
				l0.197-0.544l-0.055-0.131l0.137-0.134l-0.067-0.164l0.104-0.12l-0.039-0.37l0.064-1.142l0.059-1.064l0.018-1.162l-0.095-1.153
				l0.015-0.892l-0.052-0.402l0.064-1.142l-0.113-1.107l-0.372-1.078l-0.151-0.551l-0.374-0.345l-0.908-0.239l-0.565,0.121
				l-0.492,0.204l-0.58,0.548l-0.287,0.235l-0.011,0.158l-0.132,0.055l-0.257,0.492l-0.223,0.67l0.055,0.13l-0.318,0.903
				l-0.052,0.06l-0.003,0.27l-0.115,0.28l-0.062,0.87l0.063,0.244l-0.162,1.183l0.036,0.37L142.46,79.3l0.048,1.134l0.087,1.042
				l-0.058,0.14l0.029,0.258l-0.071,0.106l-0.003,0.271l0.323,1.057l0.049,0.211l-0.043,0.171l0.139,0.983l0.179,1.079l0.158,0.472
				l0.065-0.027l0.532,0.819l0.576,0.183l0.029,0.066l0.565-0.12L145.524,86.955z M141.238,76.266l0.055,0.132l0.46-0.191
				l-0.074-0.085l-0.305,0.01l-0.117,0.087L141.238,76.266z M142.975,72.851l-0.068-0.164l-0.125-0.025l-0.058,0.14l0.152,0.09
				L142.975,72.851z M143.747,71.376l0.205,0.03l-0.002-0.192l-0.192,0.003L143.747,71.376z M148.465,83.193l-0.217,0.128
				l0.017,0.224l0.157,0.011l0.217-0.129l0.312-0.36l-0.149-0.361l-0.165,0.068l-0.121,0.358L148.465,83.193z M149.884,83.834
				l-0.048-0.21l-0.14-0.058l-0.164,0.067l0.254,0.242L149.884,83.834z M149.48,78.692l-0.122-0.296l-0.174-0.043l-0.002,0.271
				l0.232,0.096L149.48,78.692z M149.621,79.403l0.024-0.125l-0.086-0.119l-0.159-0.011l-0.024,0.126l0.134,0.136L149.621,79.403z
				 M148.491,74.831l0.165-0.068l-0.068-0.163l-0.164,0.068L148.491,74.831z M149.23,76.795l-0.067-0.165l-0.233-0.096l-0.065,0.028
				l0.175,0.235l0.127,0.024L149.23,76.795z M149.289,78.232l0.164-0.067l-0.029-0.257l-0.164,0.067l0.002,0.191L149.289,78.232z
				 M150.67,84.894l0.324-0.058l-0.142-0.248l-0.211,0.048l0.036,0.179L150.67,84.894z M149.826,77.394l0.006-0.08l-0.12-0.104
				l-0.146,0.021l-0.188,0.194l0.35,0.008L149.826,77.394z M151.075,85.494l0.204,0.03l-0.001-0.19l-0.159-0.012l-0.024,0.126
				L151.075,85.494z M148.919,74.191l0.096,0.231l0.295-0.122l-0.029-0.258l-0.159-0.01l-0.15,0.1L148.919,74.191z M149.923,78.739
				l0.164-0.068l-0.054-0.131l-0.164,0.069L149.923,78.739z"/>
			<path fill="#FFFFFF" d="M163.507,74.02l0.087,0.117l0.203-0.161l0.086,0.118l0.021,1.068l-0.005,0.542l0.078,0.468l-0.098,0.041
				l0.05,0.863l0.259,1.086l0.106,0.533l0.196,0.38l0.26,0.161l0.101,0.151l0.265,0.083l0.389-0.085l0.424-0.368l0.383-0.468
				l0.455-1.036l0.129-0.246l-0.049-0.21l0.244-0.525l0.282-1.079l0.129-0.708l-0.048-0.21l0.282-0.617l-0.068-0.164l0.065-0.027
				l-0.055-0.132l0.223-1.132l0.124-1.09l0.158-0.913l0.125-0.628l0.424-0.369l0.295-0.123l0.771,0.373l0.224,0.446l-0.078,1.109
				l-0.092,0.615l-0.095,0.232l-0.063,1.144l-0.179,0.959l-0.251,1.065l-0.214,0.782l0.03,0.258l-0.44,1.067l-0.122,0.82
				l-0.548,0.999l-0.594,0.977l-0.597,0.786l-0.654,0.465l-1.168,0.523l-0.131,0.054l-0.106-0.071l-0.422,0.098l-1.047-0.296
				l-0.645-0.349l-0.248-0.319l-0.393-0.298l-0.304-0.451l-0.332-1.17l-0.306-1.105l-0.072-0.547l-0.082-0.196l0.038-0.092
				l-0.146-0.633l-0.038-0.831l0.065-0.027l0.001-0.924l-0.007-0.575l-0.094-0.5l0.052-1.175l0.079-0.458l-0.062-0.242l0.096-0.232
				l-0.151-0.553l0.07-0.106l-0.078-0.93l-0.181-0.618l-0.265-0.083l-0.055-0.131l-0.158-0.011l-0.067-0.164l-0.146,0.022
				l-0.18-0.157l-0.165,0.068l-0.837-0.345l-0.256,0.03l-0.337,0.486l0.002,1.115l0.03,0.257l-0.141,0.405l0.068,0.165l-0.065,0.027
				l0.054,0.131l-0.064,0.027l0.067,0.165l-0.098,0.041l0.048,0.21l-0.077,0.649l0.041,0.098l-0.065,0.027l-0.091,1.077
				l-0.085,0.536l0.067,0.164l-0.065,0.028l0.014,0.494l-0.071,0.107l0.034,0.178l-0.211,0.511l-0.188,0.193l-0.342,0.104
				l-0.484-0.145l-0.365-0.233l-0.129-0.215l-0.079-0.006l-0.026-0.528l0.14-0.866l-0.069-0.356l0.145-0.483l-0.051-0.864
				l0.082-0.264l-0.068-0.165l0.151-0.562l-0.032-0.91l0.058-0.14l-0.035-0.178l0.085-0.073l-0.058-0.322l0.069-0.298l-0.049-0.211
				l0.052-0.059l-0.152-1.015l-0.355-0.392l-0.366-0.233l-0.114-0.183l-0.098,0.041l-0.055-0.131l-0.065,0.027l-0.284-0.498
				l-0.065,0.027l-0.265-0.543l-0.167-0.586l-0.031-0.449l0.195-0.735l-0.03-0.256l0.095-0.233l-0.028-0.256l0.271-0.458
				l0.151-0.563l0.164-0.068l0.096-0.232l0.41-0.401l0.901-0.144l0.107,0.07l0.263-0.108l0.708,0.13l0.055,0.131l0.158,0.011
				l0.363,0.503l0.087,0.58l-0.059,1.063l0.037,0.831l-0.003,0.271l0.271,0.466l0.644,0.347l0.224-0.016l1.069,0.441l1.088,0.395
				l0.844,0.457l0.485,0.337l0.222,0.254l0.523,1.168l0.256,0.432l0.106,0.533l-0.03,1.129l-0.071,0.568l0.094,1.154l-0.056,0.331
				l0.063,0.244l-0.058,0.14l0.035,0.177l-0.328,0.136l-0.039,0.092L163.507,74.02z M156.422,66.226l-0.143-0.249l-0.177,0.035
				l-0.013,0.159l0.265,0.082L156.422,66.226z M155.888,63.832l0.131-0.054l-0.054-0.133l-0.131,0.055L155.888,63.832z
				 M159.992,68.244l0.188,0.269l0.26-0.301l-0.022-0.146l-0.125-0.024l-0.25,0.142L159.992,68.244z M162.349,76.231l-0.059-0.322
				l-0.163,0.068l-0.024,0.125l0.087,0.119L162.349,76.231z M162.484,74.522l0.002-0.272l-0.404-0.139l-0.15,0.101l0.155,0.282
				l0.227,0.174l-0.011,0.159l0.106,0.072l0.309-0.091l0.26,0.162l0.146-0.021l-0.188-0.268l-0.392-0.108L162.484,74.522z
				 M161.293,67.857l-0.155-0.281l-0.194-0.189l-0.191,0.003l-0.011,0.158l0.143,0.249l0.344,0.088L161.293,67.857z M162.461,75.299
				l0.126,0.026l0.296-0.123l-0.228-0.175l-0.191,0.003l0.017,0.223L162.461,75.299z M161.35,68.18l-0.024,0.126l0.142,0.25
				l0.233,0.095l-0.061-0.513l-0.072-0.085l-0.206-0.031l0.027,0.065L161.35,68.18z M162.623,72.54l-0.126-0.025l-0.176,0.226
				l0.062,0.245l0.619-0.181l-0.015-0.687l-0.027-0.064l-0.299-0.069l-0.024,0.125l0.076,0.276l-0.025,0.126L162.623,72.54z
				 M161.909,69.526l0.021,0.145l0.301,0.26l0.057,0.322l0.362-0.149l-0.103-0.149l-0.19,0.002l-0.155-0.282l-0.024-0.336
				l-0.249,0.141L161.909,69.526z M162.771,71.785l0.196-0.082l-0.074-0.085l-0.19,0.003L162.771,71.785z M162.336,69.349
				l0.282-0.156l0.044-0.172l-0.291,0.044l-0.075,0.186L162.336,69.349z"/>
			<path fill="#FFFFFF" d="M186.102,63.016l0.12,0.566l-0.124,1.09l-0.122,0.358l0.021,0.417l-0.191,1.118l-0.168,0.609l0.029,0.256
				l-0.197,0.544l0.029,0.257l-0.36,0.802l-0.002,0.271l-0.348,1.107l-0.441,1.068l-0.244,0.524l-0.094,0.424l-0.164,0.068
				l-0.011,0.159l-0.164,0.068l0.002,0.191l-0.131,0.054l-0.408,0.593l-0.129,0.245l-0.216,0.129l-0.161,0.259l-0.895,0.718
				l-0.229,0.095l-0.438,0.336l-0.867,0.321l-0.105-0.071l-0.132,0.055l-0.667-0.03l-0.199-0.109l-0.211,0.049l-0.884-0.558
				l-0.056-0.131l-0.571-0.262l-0.524,0.218l-0.516,0.984l-0.102,0.312l-0.15,0.101l0.003,0.191l-0.183,0.114l-0.026,0.126
				l-0.787,0.789l-0.359,0.341l-1.062,0.595l-0.532,0.107l-0.64,0.034l-0.199-0.109l-0.197,0.082l-1.126-0.302l-0.231-0.096
				l-0.356-0.391l-0.14-0.058l-0.564-0.804l-0.528-1.087l-0.229-0.829l-0.356-1.044l-0.152-0.552l-0.081-1.121l-0.175-1.16
				l-0.152-0.553l-0.031-0.449l0.068-0.296l-0.104-0.342l0.035-0.285l0.072-0.105l-0.067-1.089l-0.058-0.323l0.045-1.096
				l-0.073-0.547l0.204-1.085l0.023-0.125l-0.075-0.275l0.249-1.067l0.324-0.979l-0.029-0.257l0.454-1.037l0.197-0.542l0.247-0.334
				l0.082-0.265l0.649-0.847l0.443-0.414l0.911-0.495l0.886-0.368l0.093,0.039l0.421-0.098l0.857,0.029l0.106,0.071l0.178-0.036
				l0.524,0.243l0.16,0.012l0.527,0.435l0.461,0.001l0.234-0.176l0.026-0.125l-0.091-0.309l0.053-0.522l0.14-0.867l0.023-0.779
				l-0.186-0.539l-0.083-0.659l0.035-0.937l-0.032-0.45l0.071-0.105l-0.096-0.231l-0.001-1.115l0.078-1.11l-0.059-0.322l0.1-0.503
				l0.386-0.737l0.223-0.207l1.116-0.464l0.54,0.006l0.452,0.159l0.261,0.353l0.07,0.355l-0.092,0.424l-0.026,0.587l0.153,0.552
				l0.041,2.137l-0.078,1.11l-0.024,0.587l0.088,0.58l-0.046,1.097l0.047,1.134l-0.052,0.983l-0.004,1.196l-0.085,0.536l0.146,1.093
				l0.054,0.132l-0.095,0.231l0.093,0.5l-0.026,0.587l0.062,0.244l-0.12,0.82l0.131,0.408l-0.096,0.232l0.083,0.389l-0.058,1.063
				l-0.012,1.083l0.059,0.976l-0.096,0.232l0.062,0.243l-0.115,0.278l0.216,0.796l0.026,0.528l-0.082,0.264l0.205,1.145
				l-0.037,0.093L179.482,72l0.284,0.497l0.294,0.34l0.577,0.184l0.493-0.205l0.234-0.175l0.096-0.232l0.217-0.128l0.298-0.394
				l0.534-1.031l0.178-0.497l0.164-0.068l0.133-0.517l0.224-0.478l0.209-0.702l-0.03-0.257l0.162-0.26l-0.029-0.256l0.142-0.214
				l0.072-0.569l0.07-0.106l-0.068-0.164l0.066-0.027l0.003-0.27l0.21-0.512l0.188-0.847l-0.043-0.289l0.199-0.815l0.203-1.085
				l0.175-0.227l0.422-0.097l0.041,0.098l0.131-0.055l0.028,0.066l0.21-0.049l0.473,0.304L186.102,63.016z M171.693,74.928
				l-0.023-0.336l-0.164,0.068l-0.024,0.126l0.134,0.136L171.693,74.928z M172.607,61.195l-0.131,0.055l-0.268,0.649l-0.203,0.161
				l-0.104,0.583l-0.277,0.537l-0.04,0.364l-0.185,0.577l-0.155,0.833l0.045,0.289l-0.119,1.012l0.027,0.065l-0.07,0.106
				l0.028,0.258l-0.095,0.231l0.053,1.056l-0.068,0.298l0.067,1.087l0.087,1.041l0.113,1.107l0.18,1.08l0.304,1.104l0.14,0.519
				l0.406,0.794l0.219,0.062l0.161,0.203l0.549,0.118l0.454-0.112l0.504-0.362l0.657-0.734l0.219-0.399l-0.009-0.112l0.184-0.114
				l0.361-1.075l0.23-0.557l0.226-0.941l0.031-1.129l0.052-0.984l-0.076-0.276l-0.038-0.561l0.107-0.199l-0.066-1.088l0.061-0.409
				l-0.095-1.155l0.02-0.508l0.059-0.14l-0.079-0.93l-0.002-1.114l-0.165-0.586l-0.271-0.465l-0.756-0.803l-0.517-0.131
				l-0.271-0.002l-0.028-0.066l-0.262,0.109l-0.074-0.084l-0.558,0.232l-0.543,0.456L172.607,61.195z M178.109,72.956l-0.175-0.236
				l-0.26-0.161l-0.145,0.021l0.029,0.257l0.26,0.162l0.225-0.016L178.109,72.956z M177.408,69.321l-0.068-0.163l-0.219-0.063
				l-0.024,0.125l0.086,0.119l0.126,0.025L177.408,69.321z M178.408,72.562l-0.003,0.271l-0.097,0.232l0.022,0.145l0.234-0.175
				l0.143-0.212l-0.008-0.574l-0.35-0.009l-0.123-0.296l-0.134-0.136l-0.257,0.03l-0.011,0.158l0.127,0.216l0.428,0.285
				L178.408,72.562z M176.967,67.427l0.254-0.222l-0.054-0.131l-0.231-0.096l-0.064,0.219L176.967,67.427z M177.709,68.658
				l0.085-0.075l0.396,0.028l0.085-0.073l-0.164-0.393l-0.752,0.041l0.008,0.113l0.314,0.292L177.709,68.658z M178.054,69.207
				l0.166,0.123l0.063-0.219l-0.252-0.049l-0.29,0.044l0.069,0.163l0.157,0.012L178.054,69.207z M177.909,67.381l0.028,0.065
				l-0.298,0.394l0.198,0.11l0.315-0.168l0.049-0.252l-0.068-0.164l-0.158-0.011L177.909,67.381z M177.474,66.33l0.131-0.053
				l0.098-0.232l-0.229-0.175l-0.189,0.002l0.042,0.289l0.087,0.118L177.474,66.33z M177.184,64.797l0.126,0.025l0.261-0.109
				l-0.146-0.17l-0.146,0.021l-0.123,0.167L177.184,64.797z M178.459,70.462l0.23-0.095l0.114-0.28l-0.108-0.261l-0.125-0.025
				l-0.194,0.464l0.01,0.112L178.459,70.462z M176.76,61.741l0.613,0.553l0.127,0.023l0.263-0.109l-0.317-0.483l-0.39-0.107
				l-0.121-0.104l-0.021-0.146l0.286-0.234l-0.068-0.165l-0.125-0.025l-0.302,0.203l0.156,0.281l-0.062,0.22L176.76,61.741z
				 M178.035,65.828l-0.143-0.248l-0.106-0.072l-0.132,0.055l0.143,0.25l0.106,0.07L178.035,65.828z M178.214,66.909l0.011-0.158
				l-0.134-0.137l-0.064,0.027L178,66.766l0.136,0.137L178.214,66.909z M176.491,59.427l0.218,0.064l0.23-0.096l-0.087-0.119
				l-0.35-0.008L176.491,59.427z M177.821,63.647l0.426-0.177l-0.021-0.145l-0.796,0.215l0.009,0.112L177.821,63.647z
				 M177.838,64.524l0.195,0.189l0.125,0.025l0.301-0.202l-0.121-0.295l-0.401,0.242L177.838,64.524z M178.689,67.404l0.13-0.055
				l-0.067-0.163l-0.132,0.055L178.689,67.404z M177.49,59.514l-0.127-0.024l-0.263,0.109l-0.024,0.125l0.109,0.263l0.532-0.105
				l0.485-0.317l-0.304-0.452l0.058-0.139l-0.164,0.067l-0.239,0.446L177.49,59.514z M176.949,59.045l0.247-0.142l-0.007-0.113
				l-0.126-0.023l-0.124,0.166L176.949,59.045z M177.579,58.437l-0.141-0.25l-0.211,0.048l0.143,0.25l0.145-0.021L177.579,58.437z
				 M178.398,62.908l0.157-0.181l-0.05-0.21l-0.131,0.055l-0.059,0.139L178.398,62.908z M177.532,54.799l-0.196-0.378l-0.125-0.025
				l-0.004,0.271l0.193,0.188L177.532,54.799z M177.5,55.93l0.127,0.024l0.234-0.174l-0.1-0.15l-0.197,0.082l-0.058,0.139
				L177.5,55.93z M177.784,56.428l0.25-0.143l-0.036-0.177l-0.249,0.142l0.009,0.112L177.784,56.428z M178.369,55.146l-0.03-0.257
				l-0.119-0.104l-0.226,0.015l0.043,0.29l0.266,0.083L178.369,55.146z"/>
		</g>
	</g>
	<g>
		<path fill="#FFFFFF" d="M64.156,174.771l-0.152-0.157l0.061-0.595l0.147-0.281l-0.227-0.871l-0.175-0.103l-0.082-0.624
			l0.093-1.049l-0.067-1.333l-0.007-0.653l0.065-0.159l-0.134-0.646l0.043-0.105l-0.111-0.481l0.13-0.535l-0.03-0.603l0.111-0.265
			l-0.062-0.15l0.125-0.228l-0.07-0.276l0.091-0.521l-0.125-0.519l-0.075-1.241l-0.044-1.385l0.099-0.61l-0.064-0.37l0.094-0.304
			l-0.142-1.3l-0.015-1.311l0.017-1.235l0.001-1.271l0.048-0.415l-0.17-0.411l0.047-0.416l0.111-0.266l0.045-0.632l-0.143-1.302
			l0.08-0.339l-0.067-0.586l0.067-0.16l-0.064-0.367l0.065-0.16l-0.055-0.239l0.073-0.249l-0.105-1.317l0.189-1.349l0.185-1.042
			l0.082-0.648l0.075-0.031l0.114-0.573l0.396-0.954l0.216-0.221l0.132-0.317l0.247-0.145l0.028-0.145l0.88-0.845l0.619-0.519
			l0.618,0.008l0.25,0.074l0.182,0.229l0.265,0.11l0.397,0.539l0.158,0.594l-0.186,0.294l0.078,0.188l-0.147,0.28l-0.194,0.168
			l-0.173,0.641l-0.21,0.132l-0.4,1.261l-0.066,0.159l0.033,0.293l-0.11,0.264l-0.004,0.311l-0.11,0.264l0.045,0.641l-0.085,0.431
			l0.058,0.458l-0.111,0.265l0.067,0.587l0.094,0.97l-0.014,0.181l-0.075,0.031l0.04,0.948l-0.075,0.032l0.127,1.262l-0.127,0.755
			l0.056,0.241l0.005,1.183l0.029,0.602l0.077,0.188l-0.076,0.029l0.062,0.151l-0.112,0.047l0.078,0.186l-0.082,0.123l0.023,0.692
			l0.217,0.525l0.22,0.215l0.605,0.189l0.655-0.009l1.208-0.364l0.661-0.099l1.23-0.421l1.079-0.576l1.06-0.832l1.252-1.219
			l0.176-0.424l0.21-0.13l0.56-1.194l0.241-0.584l0.13-0.536l0.434-0.968l-0.012-0.348l0.142-0.188l-0.098-0.663l0.038-1.288
			l0.04-0.543l-0.21-1.359l-0.314-1.187l-0.399-1.284l-0.124-0.299l-0.494-0.455l-0.36-0.552l-0.55-0.695l-0.074,0.032l-0.382-0.501
			l-0.523-0.312l-0.062-0.149l-0.112,0.047l-0.078-0.188l-0.075,0.031l-0.061-0.149l-0.075,0.031l-0.274-0.238l-0.423-0.176
			l-0.13-0.209l-0.462-0.161l-0.539-0.348l-0.583-0.242l-0.084-0.098l-0.24,0.057l-0.205-0.181l-0.24,0.057l-1.269-0.311
			l-1.258,0.037l-0.495,0.072l-0.031-0.074l-1.181,0.223l-0.728,0.257l-0.174-0.103l-0.071-0.277l-0.134,0.099l-0.139,0.408
			l-1.087,0.449l-0.547,0.27l-0.275,0.289l-0.3,0.123l0.031,0.075l-1.13,0.555l-0.714,0.822l-0.545,0.486l-0.46,0.585l-0.111,0.265
			l-0.149,0.062l0.031,0.075l-0.454,0.494l-0.606,1.084l-0.543,1.233l-0.31,0.521l-0.033,0.453l-0.119,0.136l0.034,0.295
			l-0.082,0.12l-0.088,0.957l-0.132,0.32l-0.177,0.948l-0.104,0.176l0.102,1.098l0.136,1.393l0.021,0.473l0.367,1.209l0.601,1.244
			l0.651,1.046l0.32,0.351l0.338,0.605l0.157,0.595l-0.042,0.323l-0.28,0.598l-0.325,0.485l-0.545,0.488l-0.24,0.055l-0.53-0.22
			l-0.59-0.369l-0.51-0.491l-0.652-1.047l-0.54-1.093l-0.542-1.313l-0.517-1.146l-0.292-1.239l-0.049-0.332l0.132-0.316
			l-0.148-0.465l0.081-0.122l-0.206-0.924l0.12-0.137l0.07-0.468l-0.033-0.293l0.066-0.16l-0.083-0.624l0.156-0.897l-0.019-0.256
			l0.311-1.269l0.416-1.224l0.468-1.203l0.333-0.575l0.226-0.621l0.179-0.205l0.073-0.249l0.21-0.13l0.345-0.757l0.827-0.866
			l0.095-0.303l0.438-0.532l0.873-0.756l0.829-0.648l0.044-0.105l0.322-0.177l0.409-0.389l1.228-0.64l1.101-0.629l1.259-0.562
			l1.223-0.331l1.173-0.132l0.617,0.007l0.871-0.227l0.611,0.099l1.279-0.091l0.333,0.17l0.278-0.071l0.324,0.043l0.122,0.082
			l0.632,0.045l0.1,0.134l0.241-0.055l0.137,0.119l0.15-0.062l0.136,0.12l0.255-0.019l1.143,0.536l1.196,0.56l0.545,0.258
			l0.396,0.32l0.181,0.014l0.077,0.187l0.075-0.03l0.146,0.246l0.28,0.147l0.739,0.836l0.174,0.103l0.13,0.209l0.159,0.067
			l0.322,0.568l0.175,0.104l0.599,1.024l0.36,0.555l0.451,1.304l0.555,1.132l0.382,1.245l0.052,1.294l0.144,0.774l-0.081,0.122
			l0.033,0.295l-0.12,0.135l0.062,0.149l-0.132,0.318l0.055,0.24l-0.156,0.152l0.095,0.444l-0.088,0.212l0.101,0.353l-0.029,0.143
			l-0.075,0.032l-0.131,1.062l-0.132,0.318l0.04,0.203l-0.163,0.242l0.04,0.203l-0.164,0.243l-0.12,0.664l-0.318,0.612L79.3,154.92
			l-0.209,0.132l-0.064,0.377l-0.209,0.13l-0.348,0.537l-0.484,0.421l-0.258,0.544l-0.617,0.738l-0.463,0.365l-0.229,0.402
			l-0.598,0.466l0.03,0.074l-1.146,0.518l-1.184,0.534l-0.231,0.183l-1.042,0.342l-0.145-0.029l-1.208,0.368l-1.278,0.089
			l-1.212,0.149l-0.511,0.034l-0.3,0.125l-0.348,0.538l-0.001,1.272l0.06,0.677l-0.023,1.327l-0.038,1.288l0.082,0.623l-0.054,1.251
			l0.051,1.295l0.007,0.654l-0.099,0.611l0.086,0.315l-0.01,1.145l-0.015,0.708l-0.148,0.279l-0.041,0.324l-1.069,0.704
			l-0.546,0.271l-0.631,0.172l-0.61-0.098L64.156,174.771z M65.71,165.355l-0.134,0.099l-0.095,0.302l0.422-0.042l0.412-0.17
			l-0.1-0.134l-0.414-0.049L65.71,165.355z M65.55,163.052l0.284-0.159l-0.009-0.129l-0.137-0.119l-0.309-0.004l-0.029,0.144
			l0.152,0.156L65.55,163.052z M64.836,159.093l0.057-0.287l-0.047-0.113l-0.09-0.005l-0.11,0.265l0.1,0.135L64.836,159.093z
			 M66.366,163.33l-0.303-0.095l-0.262,0.109l0.115,0.17l0.377,0.065l0.066-0.16L66.366,163.33z M65.411,161.443l0.236,0.253
			l0.143,0.028l0.172-0.114l-0.214-0.307l-0.265-0.11l-0.075,0.031l0.024,0.166L65.411,161.443z M65.26,156.505l-0.124-0.299
			l-0.281-0.148l0.088-0.212l-0.024-0.165l-0.209,0.13l-0.073,0.249l0.202,0.488l0.309,0.004L65.26,156.505z M65.763,160.596
			l0.285-0.161l0.08-0.122l-0.094-0.442l-0.15,0.062l-0.164,0.241l0.011,0.347L65.763,160.596z M65.523,153.85l0.188-0.076
			l0.125-0.227l-0.018-0.257l-0.368,0.065l0.026,0.385L65.523,153.85z M65.272,150.051l0.18,0.015l0.232-0.185l-0.078-0.187
			l-0.121-0.08l-0.209,0.13l-0.035,0.232L65.272,150.051z M66.423,154.753l0.292-0.033l0.119-0.137l-0.115-0.174l-0.143-0.027
			l-0.185,0.297L66.423,154.753z M65.95,146.701l-0.701-0.106l0.078,0.188l0.688,0.286l0.109,0.263l0.134-0.1l0.042-0.324
			l0.447-0.403l-0.086-0.315l-0.168-0.195l-0.187,0.078l-0.28,0.597L65.95,146.701z M70.924,138.771l0.041-0.324l-0.083-0.097
			l-0.128,0.009l-0.026,0.361l0.068,0.059L70.924,138.771z M76.263,140.865l0.188-0.077l-0.034-0.294l-0.149,0.062l-0.036,0.233
			L76.263,140.865z M77.007,142.137l0.299-0.123l-0.039-0.202l-0.188,0.077l-0.103,0.174L77.007,142.137z"/>
		<path fill="#FFFFFF" d="M85.701,139.474l0.121,1.104l0,1.084l-0.02,1.126l0.057,1.133l0.039,0.544l-0.07,0.103l0.046,0.652
			l-0.097,0.039l0.208,0.772l-0.028,0.385l-0.125,0.237l-0.014,1.051l0.094,0.41l-0.075,0.179l-0.006,1.159l0.095,0.409
			l-0.053,0.506l0.095,0.408l-0.064,0.025l-0.029,0.832l0.06,0.237l-0.096,0.487l0.041,0.281l-0.046,1.063l0.025,2.228l0.037,0.544
			l-0.08,0.255l0.094,0.409l0.024,0.961l0.056,0.498l-0.094,0.225l0.083,0.563l-0.07,0.103l0.106,0.89l0.034,0.806l-0.095,0.038
			l0.338,1.092l0.292,0.439l0.548,0.333l0.53-0.07l0.426-0.324l0.341-0.439l0.062-0.211l0.16-0.066l0.411-0.99l0.475-1.018
			l0.323-1.026l0.224-0.54l-0.015-0.218l0.139-0.206l-0.066-0.159l0.206-0.497l-0.065-0.158l0.063-0.026l-0.052-0.126l0.095-0.04
			l-0.066-0.161l0.064-0.025l-0.053-0.128l0.125-0.237l0.135-0.578l-0.015-0.218l0.216-0.649l-0.047-0.203l0.232-1.065l0.25-0.476
			l0.165-0.144l0.122,0.025l0.254-0.106l0.527,0.192l0.344,0.38l0.031,1.07l0.028,0.248l-0.193,0.527l0.061,0.236l-0.252,0.925
			l0.028,0.249l-0.168,0.406l0.053,0.128l-0.121,0.159l0.028,0.249l-0.168,0.406l-0.003,0.262l-0.322,1.029l-0.23,1.064
			l-0.425,0.958l-0.287,0.751l-0.197,0.157l-0.066,0.289l-0.183,0.188l-0.131,0.313l-0.234,0.245l-0.125,0.24l-0.146,0.097
			l-0.112,0.271l-0.824,0.713l-0.298,0.272l-1.046,0.357l-1.078,0.369l-0.885-0.157l-0.813-0.521l-0.304-0.285l-0.338-0.457
			l-0.479-1.07l-0.274-1.117l-0.171-1.047l-0.088-1.119l-0.038-0.544l0.051-0.508l-0.06-0.235l0.092-0.411l-0.047-0.204l0.058-0.584
			l-0.083-0.562l0.096-1.122l-0.079-0.823l0.067-0.289l-0.08-0.826l0.074-0.18l-0.112-0.995l-0.045-1.103l0.007-1.159l0.033-1.096
			l-0.077-0.637l0.054-0.321l-0.047-0.204l-0.002-0.821l0.093-0.224l-0.053-0.128l0.064-0.025l0.022-0.309L83,146.48l-0.053-0.128
			l0.063-0.025l-0.064-0.159l0.095-0.041l-0.136-0.689l0.038-0.091l-0.181-0.707l0.047-0.877l-0.089-1.12l-0.012-1.113l0.07-0.552
			l-0.033-0.172l0.083-0.072l-0.053-0.127l0.174-0.482l0.38-0.343l0.42-0.249l0.573-0.235l0.549-0.115l0.771,0.24L85.701,139.474z
			 M84.484,159.292l-0.028-0.25l-0.104-0.069l-0.141,0.022l0.118,0.285l0.09,0.038L84.484,159.292z M84.893,160.913l0.127-0.053
			l0.056-0.135l-0.04-0.096l-0.077-0.005l-0.093,0.226L84.893,160.913z M85.539,162.661l0.198,0.028l-0.001-0.185l-0.186,0.003
			L85.539,162.661z M84.781,153.688l0.024-0.121l-0.065-0.159l-0.103-0.068l-0.064,0.025l-0.024,0.121l0.066,0.159l0.103,0.068
			L84.781,153.688z M84.335,151.522l0.184-0.188l0.048-0.243l-0.091-0.223l-0.184,0.187l-0.081,0.258l0.067,0.16L84.335,151.522z
			 M84.275,150.205l0.19-0.265l-0.04-0.097l-0.192,0.08l0.016,0.217L84.275,150.205z M84.72,149.834l0.16-0.064l-0.053-0.128
			l-0.16,0.065L84.72,149.834z M84.387,146.951l0.128-0.052l0.094-0.226l-0.314,0.054L84.387,146.951z"/>
		<path fill="#FFFFFF" d="M101.263,140.77l0.188,0.184l0.113,0.362l0.003,0.82l-0.096,0.04l0.066,0.159l-0.063,0.026l0.065,0.16
			l-0.064,0.025l0.053,0.127l-0.065,0.474l0.037,0.993l0.041,0.28l-0.099,0.304l0.018,1.036l-0.049,0.243l0.177,0.971l-0.077,1.077
			l0.005,0.557l-0.056,0.136l0.113,0.996l0.006,0.558l-0.082,0.071l0.066,0.159l-0.064,0.026l0.052,0.127l-0.095,0.04l0.065,0.159
			l-0.063,0.026l0.053,0.127l-0.064,0.025l0.066,0.162l-0.063,0.024l0.056,0.499l-0.017,0.23l0.1,0.331l-0.05,0.06l0.112,0.812
			l0.028,0.881l0.062,0.422l-0.063,0.026l0.14,1.062l0.197,0.478l0.299,0.361l0.458,0.295l0.282-0.04l0.057,0.051l0.47-0.308
			l0.658-0.755l0.067-0.288l0.178-0.113l0.086-0.333l0.127-0.053l0.443-1.002l-0.047-0.204l0.319-0.581l-0.028-0.25l0.193-0.525
			l-0.053-0.129l0.443-1.002l0.172-0.668l-0.06-0.235l0.102-0.117l-0.034-0.173l0.101-0.115l-0.053-0.128l0.121-0.162l-0.066-0.159
			l0.133-0.129l-0.053-0.128l0.069-0.102l-0.015-0.22l0.116-0.532l-0.061-0.237l0.115-0.083l-0.016-0.218l0.068-0.104l-0.052-0.127
			l0.193-0.526l0.367-0.375l0.403-0.019l0.495,0.207l0.317,0.315l0.074,0.269l-0.002,0.448l-0.094,0.225l0.06,0.236l-0.112,0.271
			l-0.11,1.089l-0.051,0.507l-0.126,0.238l0.023,0.326l-0.309,1.059l-0.245,1.034l-0.43,1.035l-0.049,0.244l-0.227,0.354
			l-0.016,0.23l-0.476,1.017l-0.443,1.003l-0.127,0.053l0.026,0.064l-0.364,0.561l-0.16,0.066l0.026,0.063l-0.444,0.369l-0.933,0.72
			l-0.451,0.262l-0.746,0.271l-0.96,0.022l-0.129-0.133l-0.205,0.047l-0.508-0.237l-0.154-0.011l-0.376-0.368l-0.412-0.276
			l-0.29-0.067l-0.177,0.111l-0.207,0.494l-0.182,0.188l-0.011,0.153l-0.197,0.156l-0.049,0.244l-0.197,0.156l-0.125,0.237
			l-0.178,0.11l0.027,0.063l-0.17,0.222l-0.024,0.122l-0.127,0.052l0.026,0.062l-0.649,0.417l-0.755,0.609l-0.502,0.32l-0.586,0.205
			l-0.878-0.049l-0.23-0.017l-0.823-0.367l-0.317-0.318l-0.064,0.027l-0.718-0.747l-0.549-0.968l-0.229-0.465l-0.293-1.071
			l-0.027-0.064l0.096-0.039l-0.249-1.053l-0.241-0.945l-0.067-0.795L90.8,154l-0.129-1.848l0.063-0.027l-0.066-0.16l0.064-0.025
			l-0.052-0.128l0.063-0.026l-0.065-0.158l0.096-0.04l-0.053-0.128l0.064-0.027l-0.102-0.516l0.051-0.058l-0.082-0.562l0.063-0.027
			l-0.049-0.391l0.069-0.103l-0.033-0.172l0.119-0.163l-0.052-0.126l0.101-0.117l-0.066-0.159l0.133-0.13l-0.065-0.156l0.101-0.117
			l0.021-0.941l0.354-1.042l0.003-0.263l0.125-0.237l0.009-0.339l0.134-0.578l0.25-0.478l0.018-0.23l0.196-0.156l0.067-0.287
			l0.336-0.362l0.094-0.224l0.127-0.054l0.702-0.737l0.375-0.268l1.109-0.384l0.421-0.247l1.044,0.091l0.887,0.343l0.878,0.682
			l0.424,0.123l0.452-0.26l0.538-0.596l0.118-0.347l0.159-0.066l-0.026-0.064l0.386-0.419l0.31-0.24l0.006-0.077l0.452-0.263
			l0.231,0.018L101.263,140.77z M92.32,153.075l-0.217,0.015l0.02,0.141l0.123,0.024l0.101-0.118L92.32,153.075z M92.977,155.749
			l0.115-0.084l0.042-0.167l-0.176,0.11l-0.006,0.077L92.977,155.749z M96.568,158.667l0.025-0.121l0.223-0.092l0.011-0.154
			l0.884-1.111l0.081-0.257l0.115-0.083l0.339-1.074l0.193-0.525l-0.052-0.128l0.133-0.129l-0.065-0.161l0.101-0.116l-0.036-0.356
			l0.064-1.109l0.06-1.032l0.02-1.125l-0.089-1.119l0.017-0.864l-0.049-0.391l0.064-1.108l-0.108-1.074l-0.358-1.046l-0.146-0.535
			l-0.363-0.337l-0.879-0.233l-0.549,0.114l-0.478,0.198l-0.564,0.531l-0.28,0.227l-0.01,0.153l-0.128,0.054l-0.251,0.476
			l-0.218,0.649l0.053,0.128l-0.31,0.873l-0.05,0.059l-0.004,0.264l-0.112,0.271l-0.062,0.844l0.061,0.237l-0.161,1.147l0.036,0.357
			l-0.112,0.271l0.043,1.1l0.082,1.011l-0.056,0.136l0.029,0.249l-0.07,0.104l-0.004,0.262l0.313,1.026l0.047,0.204l-0.043,0.168
			l0.132,0.953l0.171,1.047l0.152,0.459l0.064-0.025l0.515,0.794l0.559,0.181l0.027,0.063l0.549-0.115L96.568,158.667z
			 M92.435,148.292l0.053,0.127l0.445-0.183l-0.071-0.084l-0.295,0.01l-0.114,0.085L92.435,148.292z M94.126,144.982l-0.065-0.158
			l-0.122-0.024l-0.057,0.134l0.149,0.089L94.126,144.982z M94.879,143.554l0.199,0.029l-0.002-0.184l-0.186,0.001L94.879,143.554z
			 M99.428,155.026l-0.21,0.124l0.015,0.217l0.154,0.011l0.21-0.125l0.304-0.348l-0.145-0.35l-0.159,0.064l-0.118,0.349
			L99.428,155.026z M100.805,155.651l-0.047-0.203l-0.136-0.058l-0.159,0.065l0.246,0.235L100.805,155.651z M100.424,150.663
			l-0.119-0.288l-0.167-0.043l-0.003,0.263l0.226,0.094L100.424,150.663z M100.559,151.352l0.024-0.122l-0.084-0.114l-0.154-0.012
			l-0.024,0.121l0.13,0.135L100.559,151.352z M99.473,146.916l0.16-0.067l-0.065-0.159l-0.16,0.066L99.473,146.916z
			 M100.186,148.821l-0.066-0.159l-0.225-0.094l-0.064,0.027l0.169,0.229l0.122,0.024L100.186,148.821z M101.564,156.68l0.313-0.054
			l-0.137-0.243l-0.204,0.048l0.034,0.173L101.564,156.68z M100.239,150.217l0.159-0.065l-0.028-0.251l-0.159,0.067l0.001,0.185
			L100.239,150.217z M100.762,149.403l0.006-0.077l-0.117-0.1l-0.141,0.02l-0.184,0.188l0.34,0.008L100.762,149.403z
			 M101.956,157.264l0.198,0.029l-0.001-0.184l-0.154-0.012l-0.025,0.121L101.956,157.264z M99.889,146.296l0.093,0.224l0.286-0.118
			l-0.029-0.249l-0.153-0.013l-0.146,0.098L99.889,146.296z M100.853,150.71l0.16-0.066l-0.053-0.129l-0.16,0.066L100.853,150.71z"
			/>
		<path fill="#FFFFFF" d="M109.356,137.168l0.152,1.093l-0.028,1.018l0.058,1.132l0.003,0.372l-0.067,0.29l0.062,0.421l-0.142,0.469
			l0.028,0.249l-0.096,0.04l0.053,0.127l-0.064,0.027l0.047,0.204l-0.062,0.21l0.204,1.037l-0.046,1.063l-0.058,0.582l0.108,1.073
			l-0.034,1.096l0.063,1.056l0.083,0.562l-0.063,0.026l0.066,0.16l-0.064,0.027l0.012,0.479l-0.062,0.212l-0.273,0.149l0.296,0.177
			l0.076,1.087l0.057,0.499l0.191,0.555l0.182,0.261l0.624,0.338l0.516-0.287l0.412-0.355l0.586-0.84l0.481-1.093l0.237-0.509
			l0.041-0.353l0.252-0.475l-0.053-0.129l0.199-1.052l0.07-0.552l0.182-0.373l-0.053-0.127l0.098-0.488l0.013-0.602l0.118-0.348
			l0.046-1.062l0.051-1.142l-0.073-0.268l0.067-0.288l-0.065-0.159l0.063-0.026l-0.053-0.127l0.064-0.026l-0.065-0.16l0.062-0.026
			l-0.08-0.377l0.045-1.063l-0.062-1.056l0.017-0.23l0.064-0.026l-0.066-0.16l0.063-0.026l-0.047-0.204l0.065-0.474l-0.114-0.549
			l0.068-0.103l-0.029-1.068l-0.051-1.024l-0.112-0.363l0.068-0.104l0.004-0.264l0.174-0.48l0.179-0.111l0.087-0.148l1.077-0.556
			l0.509-0.211l0.372-0.003l0.508,0.235l0.102,0.52l-0.04,0.986l0.127,0.58l-0.077,1.076l0.114,0.998l-0.083,0.071l0.019,1.671
			l-0.095,0.224l0.054,0.128l-0.064,0.026l0.066,0.16l-0.097,0.039l0.096,1.042l-0.067,0.29l0.112,0.361l-0.056,0.136l0.031,1.069
			l-0.016,0.416l0.089,0.486l-0.067,0.289l0.092,0.856l-0.061,0.845l-0.034,0.275l0.052,0.128l-0.14,0.206l0.066,0.16l-0.063,0.026
			l0.057,0.499l0.063,0.606l-0.039,0.986l0.041,0.281l-0.062,0.027l0.064,0.158l-0.051,0.059l0.033,0.172l-0.059,0.398l0.052,0.127
			l-0.027,0.385l0.111,0.178l0.18,0.074l0.391-0.049l0.298-0.272l0.162-0.327l0.184-0.189l0.561-0.9l0.341-0.44l0.488-0.983
			l0.192-0.528l0.178-0.11l0.367-1.009l0.462-1.049l0.208-0.943l0.106-0.192l-0.048-0.204l0.112-0.27l0.134-0.131l-0.048-0.204
			l0.152-0.174l-0.066-0.159l0.102-0.117l-0.054-0.128l0.064-0.026l-0.065-0.158l0.096-0.041l0.139-0.653l-0.052-0.129l0.07-0.102
			l0.052-0.507l0.181-0.374l0.229-0.167l0.532-0.071l0.503,0.314l0.188,0.184l0.099,0.332l-0.013,0.603l-0.161,0.514l-0.09,1.044
			l-0.041,0.353l-0.418,1.068l-0.125,0.236l-0.196,0.789l0.028,0.251l-0.219,0.463l-0.104,0.563l-0.451,0.896l-0.136,0.394
			l-0.128,0.052l-0.104,0.379l-0.33,0.285l-0.307,0.612l-0.184,0.187l-0.08,0.257l-0.196,0.156l-0.112,0.271l-0.65,0.865
			l-0.459,0.785l-0.761,0.688l-0.727,0.858l-0.296,0.458l-0.256,0.554l0.035,0.356l-0.093,0.227l0.049,1.022l-0.024,0.123
			l0.18,0.522l-0.132,0.315l0.048,0.205l-0.159,0.698l0.081,1.012l-0.079,0.257l0.014,0.216l-0.095,0.04l0.065,0.159l-0.063,0.026
			l-0.015,0.417l-0.125,0.237l0.053,0.128l-0.12,0.161l0.052,0.128l-0.125,0.238l-0.183,0.821l-0.65,0.864l-0.31,0.426l-0.205,0.495
			l-0.349,0.331l-0.94,0.611l-1.033,0.39l-0.128,0.053l-0.026-0.063l-0.441,0.105l-1.153-0.081l-1.017-0.477l-0.702-0.978
			l-0.21-0.511l-0.121-1.105l0.091-1.045l0.224-0.54l0.17-0.221l-0.001-0.184l0.178-0.111l0.489-0.985l0.024-0.121l0.298-0.272
			l0.309-0.425l0.646-0.604l0.695-0.847l0.798-0.775l0.34-0.439l0.096-0.04l0.36-0.482l0.188-0.451l0.134-0.577l-0.171-0.415
			l-0.353-0.04l-0.311,0.239l0.002,0.187l-0.196,0.157l-0.095,0.224l-0.457,0.338l-0.121,0.16l-0.991,0.672l-0.842,0.31l-0.09-0.038
			l-0.536,0.147l-0.526-0.193l-0.307-0.021l-0.26-0.266l-0.289-0.068l-0.648-0.664l-0.062,0.025l-0.261-0.452l-0.352-1.122
			l-0.286-0.964l-0.094-0.408l-0.043-1.101l-0.089-1.119l0.09-1.045l-0.089-1.118l0.082-0.705l-0.096-0.594l0.014-1.051l0.02-1.128
			l-0.076-1.086l0.014-1.051l0.053-1.14l-0.089-1.118l-0.076-1.088l0.158-0.7l0.179-0.11l0.107-0.192l1.115-0.462l0.523-0.178
			l0.494,0.021l0.386,0.213L109.356,137.168z M107.745,150.251l0.003-0.263l-0.084-0.115l-0.127,0.053l0.055,0.313L107.745,150.251z
			 M107.954,149.493l0.053,0.127l0.326-0.024l-0.065-0.157l-0.212-0.062l-0.083,0.07L107.954,149.493z M108.822,152.677l0.127-0.052
			l0.046-0.429l-0.199-0.03l-0.014,0.416L108.822,152.677z M113.095,158.334l-0.165,0.144l-0.056,0.136l-0.798,0.775l-0.341,0.438
			l-0.162,0.329l-0.127,0.054l-0.068,0.288l-0.296,0.458l-0.225,0.538l-0.103,0.565l0.133,0.504l0.362,0.336l0.61,0.122l0.268-0.075
			l-0.026-0.062l0.42-0.247l0.234-0.248l0.534-0.966l0.294-0.643l-0.016-0.217l0.255-0.738l-0.066-0.161l0.102-0.115l-0.066-0.159
			l0.064-0.026l-0.053-0.127l0.096-0.04l-0.065-0.159l0.063-0.026l-0.135-0.689l-0.335-0.086l-0.237,0.059L113.095,158.334z
			 M109.231,153.85l0.146-0.096l0.023-0.122l-0.191,0.078l-0.005,0.077L109.231,153.85z M107.846,143.72l-0.065-0.159l-0.212-0.062
			l-0.083,0.071l0.04,0.095l0.244,0.05L107.846,143.72z M108.928,147.152l-0.021-0.141l-0.258-0.081l-0.024,0.122l0.085,0.115
			l0.122,0.024L108.928,147.152z M114.904,160.46l0.115-0.086l0.016-0.231l-0.117-0.102l-0.185,0.003L114.904,160.46z
			 M114.359,156.881l0.024-0.122l0.146-0.099l-0.084-0.112l-0.385-0.029l0.119,0.286l0.117,0.102L114.359,156.881z M114.358,155.613
			l0.287-0.118l-0.079-0.192l-0.159,0.067l-0.043,0.166L114.358,155.613z M115.043,158.537l0.066,0.159l0.064-0.025l0.025,0.062
			l0.159-0.065l-0.026-0.062l0.064-0.026l-0.066-0.16l-0.09-0.038l-0.16,0.065l0.026,0.064L115.043,158.537z M115.141,156.334
			l-0.51,0.212l0.085,0.113l0.198,0.03l0.216-0.201l0.024-0.122L115.141,156.334z M113.925,150.497l0.341,0.193l0.093,0.226
			l-0.318,0.13l-0.413-0.277l0.028,0.25l0.39,0.584l-0.337,0.176l0.078,0.191l0.091,0.038l0.273-0.15l0.391-0.497l0.093-0.411
			l0.101-0.115l0.511-0.212l0.263,0.006l0.103,0.069l0.236-0.062l-0.028-0.25l-0.22-0.17l0.703-0.104l-0.084-0.114l-0.258-0.08
			l-0.51,0.21l-0.521,0.364l-0.182-0.261l-0.537,0.146l-0.104-0.07l0.069-0.103l-0.02-0.14l-0.104-0.069l-0.105-0.256l-0.14,0.022
			l0.076,0.638L113.925,150.497z M114.975,157.559l0.122,0.024l0.255-0.105l0.068-0.104l-0.187-0.183l-0.218,0.016l-0.035,0.276
			L114.975,157.559z M114.849,154.814l-0.007,0.524l0.071,0.082l0.473-0.12l0.206,0.138l0.096-0.037l-0.021-0.142l0.094-0.225
			l-0.105-0.255l-0.238-0.125l-0.085-0.117l0.377-0.079l0.069-0.104l-0.143-0.165l-0.255,0.105l-0.165,0.142l-0.084-0.113
			l-0.583-0.058l-0.062,0.213l0.303,0.284L114.849,154.814z M114.506,153.352l0.395,0.322l0.222,0.356l0.205-0.048l0.448-0.446
			l0.03-0.198l0.102-0.117l-0.026-0.062l-0.287,0.118l-0.116-0.103l-0.257-0.079l-0.188-0.185l-0.199-0.029l-0.093,0.226
			l-0.216,0.201L114.506,153.352z M113.973,149.618l0.035-0.274l-0.07-0.082l-0.11,0.006l-0.023,0.122l0.092,0.225L113.973,149.618z
			 M114.673,151.679l-0.314,0.318l0.144,0.35l0.173-0.033l0.117-0.348l0.141-0.021l0.148,0.088l-0.024,0.123l0.105,0.254
			l0.129,0.134l-0.263-0.003l-0.037,0.089l0.098,0.147l0.136,0.055l0.183-0.187l0.094-0.226l-0.099-0.779l-0.55-0.07l-0.16,0.064
			L114.673,151.679z M115.655,157.128l0.524,0.008l0.082-0.072l-0.099-0.331l-0.122-0.024l-0.286,0.12l-0.094,0.224L115.655,157.128
			z M114.166,148.01l0.095,0.409l-0.197,0.155l0.053,0.128l0.52,0.085l0.238,0.124l-0.012,0.153l-0.22,0.277l0.326,0.61l0.262,0.006
			l0.07-0.104l0.016-0.23l-0.139-0.427l0.389-0.234l-0.085-0.113l-0.23-0.019l-0.209-0.324l0.128-0.053l0.244,0.05l0.127-0.054
			l0.024-0.121l-0.105-0.255l0.184-0.188l0.011-0.153l-0.121-0.024l-0.343,0.255l-0.295,0.008l-0.246-0.234l-0.419,0.249
			L114.166,148.01z M114.494,147.54l-0.053-0.128l-0.226-0.093l-0.011,0.153l0.194,0.107L114.494,147.54z M114.673,146.979
			l-0.117-0.285l-0.117-0.102l-0.108,0.008l-0.049,0.242l0.221,0.172l0.063-0.025L114.673,146.979z M115.693,151.258l-0.079-0.19
			l-0.223,0.092l0.053,0.126l0.186-0.001L115.693,151.258z M115.958,153.798l0.053,0.127l0.263,0.002l0.184-0.188l-0.093-0.223
			l-0.387,0.235L115.958,153.798z M114.745,145.348l-0.196,0.155l-0.015,0.418l-0.125,0.236l0.115,0.102l0.503-0.318l0.188-0.266
			l-0.064-0.159l-0.115,0.085l-0.126,0.237l-0.127,0.054l-0.09-0.037l0.205-0.495l0.042-0.354l-0.077-0.005l-0.081,0.257
			L114.745,145.348z M115.144,146.674l0.167,0.043l0.03-0.198l-0.187,0.003L115.144,146.674z M114.771,144.144l0.127-0.053
			l-0.064-0.158l-0.128,0.053L114.771,144.144z M114.949,142.95l-0.055-0.312l-0.224,0.093l0.066,0.16l0.148,0.086L114.949,142.95z
			 M116.488,147.312l-0.149-0.272l-0.104-0.07l-0.466,0.045l0.055,0.312l0.129,0.134l0.243,0.047l0.242-0.135L116.488,147.312z
			 M115.854,144.964l-0.192-0.106l0.092,0.224l0.096-0.04L115.854,144.964z M115.674,144.255l0.128-0.053l-0.053-0.127l-0.223,0.092
			l0.104,0.07L115.674,144.255z M115.71,143.347l0.021-0.308l-0.076-0.006l-0.081,0.256l0.059,0.053L115.71,143.347z
			 M115.984,139.317l-0.123-0.211l-0.217,0.015l0.136,0.242l0.142-0.021L115.984,139.317z M115.691,137.611l0.187-0.002
			l-0.053-0.127l-0.199-0.03L115.691,137.611z"/>
		<path fill="#FFFFFF" d="M163.318,129.98l-0.88,0.846l-0.324,0.704l-0.23,0.184l-0.187,0.295l-0.403,0.299l-0.417,0.479
			l-1.199,0.495l-1.244,0.383l-0.902,0.153l-0.27,0.199l-0.162,0.242l-0.159,0.68l0.105,1.316l-0.014,0.926l0.112,1.226l-0.11,0.266
			l0.07,0.278l-0.093,0.302l0.041,1.166l0.063,0.896l-0.093,0.522l0.186,0.448l-0.162,0.243l-0.005,0.309l-0.348,0.538l-0.293,0.033
			l-0.892-0.245l-0.131-0.211l-0.181-0.012l-0.131-0.211l-0.316-0.131l-0.84-0.97l-0.292-0.494l-0.159-0.812l0.075-0.031
			l-0.062-0.15l0.074-0.029l-0.076-0.188l0.111-0.047l-0.061-0.149l0.074-0.031l-0.134-1.173l-0.074-0.716l0.106-0.483l-0.023-1.438
			l-0.02-1.218l-0.201-0.488l-0.16-0.065l-0.046-0.112l-0.317-0.133l-0.362-0.025l-0.149,0.062l-0.047-0.112l-0.48,0.11
			l-0.158-0.065l-0.241,0.056l-0.047-0.112l-0.149,0.061l-1.351-0.188l-0.474,0.021l-0.316-0.132l-0.151,0.062l-0.031-0.075
			l-0.187,0.077l-0.032-0.074l-0.148,0.062l-0.046-0.113l-0.941-0.049l-0.123-0.083l-0.262,0.108l-0.122-0.081l-0.405,0.081
			l-0.423,0.568l-0.132,0.316l0.056,0.241l-0.119,0.136l0.062,0.149l-0.075,0.032l0.078,0.188l-0.113,0.047l0.012,0.346l-0.19,0.605
			l0.077,0.186l-0.2,0.26l0.034,0.293l-0.538,1.143l-0.506,1.219l-0.544,1.233l-0.348,0.537l-0.47,0.458l-0.147,0.279l-0.171,0.115
			l-0.028,0.144l-0.211,0.13l-0.064,0.159l-0.495,0.292l0.031,0.075l-0.935,0.604l-0.216,0.221l-2.324,0.96l-1.338,0.156
			l-0.632-0.045l-1.265,0.126l-0.1-0.133l-0.702-0.105l-0.273-0.238l-0.841-0.443l-0.099-0.134l-0.923-0.322l-0.077-0.187
			l-0.112,0.047l-0.062-0.149l-0.815-0.806l-0.337-0.605l-0.336-0.39l-0.316-0.658l-0.12-0.609l-0.216-0.524l0.044-0.104
			l-0.156-0.594l0.001-1.273l0.362-1.245l0.484-1.166l0.478-1.074l0.15-0.062l-0.046-0.111l0.425-0.352l0.654-0.752l1.106-0.722
			l0.5-0.38l1.133-0.554l1.267-0.437l1.111-0.284l1.022-0.07l0.765-0.273l1.274,0.001l1.31-0.014l0.293-0.034l0.284-0.159
			l0.178-0.205l0.137-0.628l-0.039-0.948l0.059-0.067l-0.062-0.15l0.067-0.686l-0.051-1.295l0.026-0.362l-0.089-1.278l0.008-0.619
			l-0.129-0.736l0.074-0.03l0.042-0.325l-0.086-0.314l0.11-0.265l-0.062-0.15l0.055-1.249l0.081-0.123l-0.104-0.57l-0.116-1.663
			l0.101-0.611l-0.053-1.293l0.049-0.416l-0.065-0.367l0.055-1.252l-0.131-0.954l-0.598-0.279l-0.271-0.021l-0.811,0.377
			l-0.105-0.042l-1.214,0.457l-2.522,0.69l-0.406,0.078l-0.046-0.111l-1.187,0.314l-1.306,0.45l-1.276,0.308l-1.043,0.344
			l-1.077,0.576l-0.602,0.246l-0.969,0.84l-0.112,0.047l0.046,0.11l-0.246,0.148l-0.576,1.158l-0.289,0.996l-0.066,0.16l0.062,0.149
			l-0.123,0.445l0.336,1.135l0.179,0.539l0.521,0.838l0.312,0.223l0.267,0.328l0.233,0.035l0.29,0.276l1.034,0.273l0.203-0.039
			l0.03,0.074l0.475-0.021l1.306-0.451l1.075-0.794l0.363-0.501l0.469-0.458l0.587-0.066l0.998,0.29l0.131,0.21l0.294,0.185
			l0.299,0.404l-0.065,0.16l0.029,0.601l-0.317,0.612l-0.483,0.422l-0.03,0.142l-0.231,0.184l-0.067,0.16l-0.962,0.746l-1.169,0.571
			l-1.245,0.383l-0.339,0.138l-0.104-0.042l-0.263,0.108l-1.183,0.005l-1.078-0.169l-1.217-0.508l-0.757-0.344l-0.169-0.195
			l-0.144-0.028l-0.282-0.366l-0.075,0.031l-0.434-0.521l-0.465-0.379l-0.329-0.479l-0.532-1.184l-0.191-0.359l0.02-0.271
			l-0.115-0.172l-0.052-0.55l-0.203-0.704l-0.055-0.769l0.164-0.986l-0.019-0.258l0.138-0.408l-0.061-0.149l0.094-0.302l0.591-1.121
			l0.214-0.439l0.209-0.13l-0.046-0.113l0.187-0.077l-0.03-0.074l0.148-0.062l0.111-0.265l0.539-0.396l-0.031-0.075l0.947-0.787
			l0.005-0.09l0.779-0.452l-0.03-0.074l0.569-0.324l0.177-0.205l1.132-0.554l1.216-0.458l1.034-0.252l0.107,0.045l1.224-0.33
			l1.255-0.254l0.608-0.119l0.49,0.016l1.198-0.495l1.224-0.329l1.27-0.436l1.204-0.585l1.011-0.637l0.521-0.435l0.378-0.463
			l0.562-0.977l0.273-0.508l0.15-0.062l-0.031-0.076l0.478-0.328l0.289-0.47l0.188-0.078l0.237-0.274l0.6-0.247l0.346-0.013
			l0.546,0.258l0.404,0.447l0.247,0.6l0.034,0.294l-0.19,0.604l-0.559,1.195l-0.416,1.224l-0.06,0.069l0.078,0.187l-0.097,0.084
			l0.061,0.149l-0.162,0.243l-0.02,1.017l-0.044,1.376l-0.002,1.272l0.097,0.663l-0.11,0.046l0.076,0.188l-0.074,0.028l0.052,1.296
			l0.006,0.656l-0.065,0.158l0.062,0.148l-0.069,1.215l0.098,0.66l-0.066,0.159l0.045,0.641l-0.141,0.188l0.062,0.151l-0.075,0.03
			l0.142,0.557l-0.06,0.068l0.047,0.111l-0.083,0.122l0.137,0.645l-0.046,0.634l0.058,0.459l-0.08,0.121l0.055,0.24l-0.079,0.34
			l0.013,1.312l0.089,1.06l-0.167,1.298l0.186,1.192l-0.081,0.124l0.033,1.038l0.33,0.479l0.989,0.381l1.198,0.033l0.256-0.02
			l0.03,0.075l0.31,0.003l0.317,0.134l0.475-0.021l0.28,0.146l1.244,0.145l0.979,0.035l0.525-0.217l0.298-0.342l-0.019-1.001v-1.272
			l0.1-0.61l-0.089-1.28l-0.008-1.4l-0.015-1.31l0.016-1.235l-0.089-1.28l0.045-0.104l-0.056-0.24l0.065-0.158l-0.061-0.678
			l0.045-0.106l-0.062-0.149l0.11-0.266l-0.131-0.955l0.082-0.12l-0.098-0.663l0.057-0.285l-0.089-1.28l0.129-1.281l-0.104-1.316
			l0.137-1.153l-0.163-1.248l-0.062-0.149l0.112-0.047l-0.074-1.241l-0.04-0.203l0.075-0.031l-0.076-0.188l0.111-0.045l-0.062-0.151
			l0.075-0.031l-0.144-1.302l-0.004-0.437l0.082-0.122l-0.071-0.278l0.121-0.663l0.257-0.546l0.479-0.328l1.274-0.526l0.7-0.113
			l0.536,0.13l0.205,0.177l0.172,0.632l-0.121,0.664l0.012,0.347l-0.109,0.264l0.091,0.752l0.064,0.368l-0.009,0.617l-0.133,0.317
			l0.059,1.204l0.106,1.317l-0.026,1.107l-0.079,0.339l0.126,1.263l-0.045,0.635l0.097,0.66l-0.062,1.123l0.055,0.241l-0.109,0.264
			l0.053,0.769l0.094,0.226l-0.081,0.12l0.102,0.353l-0.042,1.069l-0.095,0.302l0.059,0.46l-0.11,0.266l0.062,0.149l-0.024,0.58
			l0.128,1.263l-0.039,1.288l0.037,1.257l0.086,0.316l-0.132,0.317l0.052,1.295l-0.009,0.617l0.062,0.149l-0.11,0.266l0.063,0.367
			l-0.043,0.106l0.077,0.188l-0.132,0.316l0.148,1.211l0.335,0.388l0.425,0.177l0.556-0.143l1.249-0.691l1.04-0.778l0.719-0.912
			l0.521-1.18l0.079-0.341l0.186-0.296l-0.025-0.166l0.17-0.331l-0.011-0.347l0.134-0.101l0.273-1.252l0.095-0.303l-0.041-0.202
			l0.076-0.032l0.144-1.242l0.137-0.627l0.147-0.279l0.638-0.264l0.309,0.003l0.575,0.334l0.292,0.492l-0.016,0.709l-0.203,1.313
			l-0.024,0.579l-0.167,0.552l-0.153,1.115l-0.095,0.303l0.04,0.202l-0.47,1.202l-0.004,0.31l-0.334,0.358l-0.283,0.905
			L163.318,129.98z M135.129,134.379l-0.971,0.839l-0.461,0.585l-0.515,1.09l-0.061,0.813l0.074,0.495l-0.032,0.453l0.225,0.652
			l0.706,1.069l0.668,0.559l0.242,0.162l0.695,0.195l0.813,0.059l0.046,0.112l0.317-0.086l0.563-0.015l0.149-0.061l0.122,0.082
			l0.614-0.212l1.214-0.675l1.03-0.688l0.609-0.866l-0.003-0.219l0.23-0.182l0.123-0.445l0.113-0.048l0.207-0.349l0.12-0.663
			l0.346-0.756l0.06-0.813l0.182-0.516l-0.023-0.166l0.117-0.135l-0.061-0.15l0.152-0.589l-0.036-0.514l-0.1-0.134l-0.249-0.072
			l-0.131-0.21l-0.302-0.093l-0.459,0.056l-0.031-0.074l-0.15,0.062l-0.03-0.075l-0.187,0.077l-0.031-0.074l-0.149,0.062
			l-0.048-0.112l-0.187,0.077l-0.031-0.076l-1.173,0.136l-1.256,0.253l-1.335,0.376l-1.537,0.635l-0.118,0.138L135.129,134.379z
			 M138.957,143.019l-0.144-0.028l-0.299,0.125l0.1,0.133l0.291-0.034l0.083-0.12L138.957,143.019z M142.133,140.831l0.136-0.101
			l0.049-0.195l-0.208,0.13l-0.007,0.09L142.133,140.831z M142.731,139.093l0.136-0.101l-0.062-0.149l-0.181-0.013L142.731,139.093z
			 M143.65,137.703l0.217-0.22l-0.019-0.256l-0.618-0.009l0.373,0.372L143.65,137.703z M142.859,130.792l-0.095,0.304l-0.2,0.257
			l-0.095,0.302l0.025,0.166l0.339,0.078l0.442-0.839l0.321-0.177l-0.099-0.136l-0.314,0.088l-0.138-0.12l0.119-0.137l0.034-0.233
			l-0.337,0.14l0.003,0.218L142.859,130.792z M143.41,134.251l-0.124-0.302l-0.203,0.041l0.061,0.148l0.176,0.105L143.41,134.251z
			 M144.075,131.081l-0.475,0.766l0.229,0.342l0.189-0.076l0.071-0.249l0.097-0.084l-0.123-0.3l0.271,0.02l0.188,0.668l0.1,0.135
			l0.196,0.051l0.186-0.296l0.057-0.286l0.188-0.077l-0.201-0.487l-0.883-0.119L144.075,131.081z M144.253,132.895l-0.014,0.179
			l0.085,0.098l-0.225,0.093l0.077,0.188l0.355,0.114l0.118-0.135l0.026-0.363l0.356-0.41l-0.062-0.149l-0.461,0.366l-0.166,0.025
			L144.253,132.895z M144.015,130.402l-0.061,0.068l0.17,0.194l0.486-0.201l0.079-0.34l-0.181-0.012l-0.27,0.198l-0.03-0.074
			l-0.331,0.048l-0.006,0.091l0.075-0.03L144.015,130.402z M143.855,129.591l0.187-0.077l0.073-0.249l-0.222-0.215l-0.18-0.015
			l-0.005,0.31l0.101,0.136L143.855,129.591z M143.869,127.394l-0.1-0.135l-0.197-0.051l-0.029,0.143l0.085,0.098l0.129-0.008
			L143.869,127.394z M144.868,133.428l0.009,0.129l0.431,0.085l0.11-0.265l-0.092-0.225l-0.436,0.223L144.868,133.428z
			 M143.82,127.807l0.094,0.971l0.606-0.337l0.072-0.25l-0.108-0.262l-0.216,0.222l-0.243-0.165l0.073-0.248l-0.047-0.113
			l-0.209,0.13L143.82,127.807z M143.658,125.286l0.076,0.188l0.135-0.098l-0.055-0.242l-0.082,0.121L143.658,125.286z
			 M144.673,129.343l0.165-0.025l0.216-0.221l-0.029-0.074l-0.413,0.17l-0.007,0.089L144.673,129.343z M144.153,126.485l0.218-0.002
			l-0.13-0.208l-0.15,0.062L144.153,126.485z M145.419,132.105l0.435-0.224l-0.009-0.128l-0.565,0.014L145.419,132.105z
			 M145.229,130.69l0.15-0.062l-0.062-0.149l-0.15,0.061L145.229,130.69z M145.178,130.142l0.217-0.221l-0.018-0.255l-0.369,0.064
			L145.178,130.142z M144.339,124.918l0.075-0.03l0.384,0.719l0.209-0.13l0.029-0.145l-0.285-0.585l0.262-0.854l-0.083-0.095
			l-0.129,0.008l-0.297,0.343l-0.287-0.058l-0.188,0.078l0.064,0.367l0.176,0.322L144.339,124.918z M145.337,126.698l0.043-0.105
			l-0.06-0.148l-0.303-0.095l0.031,0.292l0.213,0.088L145.337,126.698z M144.606,123.228l0.193-0.166l-0.123-0.301l-0.241,0.055
			l0.102,0.354L144.606,123.228z M144.353,119.956l0.33-0.051l0.163-0.241l-0.046-0.112l-0.338,0.141l-0.141,0.189L144.353,119.956z
			 M144.41,119.142l0.063,0.15l0.383-0.027l-0.161-0.284l-0.255,0.017l0.031,0.075L144.41,119.142z M143.886,111.812l0.136-0.098
			l0.063-0.378l-0.31-0.003l-0.029,0.142L143.886,111.812z M144.019,110.75l0.22,0.217l0.18-0.206l-0.094-0.225l-0.283,0.162
			L144.019,110.75z M154.54,135.71l0.187-0.078l0.066-0.158l-0.124-0.3l-0.302-0.095l0.139,0.337l0.003,0.219L154.54,135.71z
			 M154.409,131.992l-0.144-0.029l-0.487,0.2l0.077,0.188l0.121,0.082l0.165-0.025l0.231-0.182l0.028-0.143L154.409,131.992z
			 M155.694,137.338l-0.321-0.35l-0.277,0.069l0.078,0.188l0.295,0.186l0.166-0.024L155.694,137.338z M155.1,133.987l-0.009-0.129
			l-0.205-0.178l-0.18-0.014l-0.263,0.107l0.259,0.201l0.308,0.004L155.1,133.987z M154.595,133.187l0.149-0.062l-0.062-0.149
			l-0.15,0.062L154.595,133.187z M155.53,133.327l-0.062-0.149l-0.157-0.067l-0.225,0.094l0.06,0.149l0.31,0.005L155.53,133.327z
			 M154.846,130.714l0.268,0.328l0.09,0.006l-0.128-0.735l-0.15,0.063l-0.11,0.262L154.846,130.714z M155.079,130.003l-0.219-0.743
			l-0.183,0.515l0.146,0.248l0.18,0.012L155.079,130.003z M155.416,131.882l0.216-0.221l-0.026-0.385l-0.292,0.036l-0.003,0.526
			L155.416,131.882z M155.938,130.174l-0.113-0.171l0.069-0.467l0.135-0.101l-0.319-0.351l-0.16-0.065l-0.186,0.077l0.137,0.865
			l0.221,0.215l0.142,0.028L155.938,130.174z M155.534,128.236l-0.1-0.134l-0.195-0.052l-0.029,0.145l0.084,0.096l0.127-0.007
			L155.534,128.236z M155.409,127.719l0.309,0.005l0.06-0.069l-0.116-0.172l-0.142-0.029l-0.144,0.189L155.409,127.719z
			 M155.25,126.379l0.219-0.002l0.014-0.181l-0.234-0.035l0.009,0.128L155.25,126.379z M156.743,132.123l-0.2,0.258l0.106,0.046
			l0.135-0.1l0.028-0.143L156.743,132.123z"/>
		<path fill="#FFFFFF" d="M173.875,110.799l0.188,0.184l0.112,0.363l0.002,0.819l-0.095,0.039l0.066,0.161l-0.063,0.026l0.065,0.159
			l-0.063,0.026l0.053,0.127l-0.066,0.474l0.037,0.992l0.041,0.28l-0.099,0.304l0.019,1.037l-0.05,0.242l0.178,0.971l-0.078,1.077
			l0.006,0.557l-0.056,0.135l0.113,0.998l0.005,0.557l-0.081,0.071l0.065,0.159l-0.064,0.026l0.054,0.127l-0.097,0.04l0.065,0.159
			l-0.063,0.026l0.053,0.127l-0.063,0.026l0.065,0.16l-0.062,0.026l0.057,0.499l-0.018,0.229l0.1,0.331l-0.051,0.06l0.111,0.812
			l0.028,0.883l0.063,0.422l-0.063,0.026l0.14,1.062l0.197,0.478l0.298,0.361l0.459,0.295l0.28-0.04l0.058,0.051l0.47-0.307
			l0.659-0.756l0.067-0.288l0.177-0.113l0.087-0.332l0.128-0.054l0.442-1.002l-0.047-0.204l0.319-0.58l-0.027-0.25l0.192-0.526
			l-0.053-0.129l0.444-1.002l0.171-0.668l-0.061-0.235l0.102-0.117l-0.034-0.173l0.102-0.116l-0.053-0.127l0.119-0.161l-0.064-0.159
			l0.132-0.129l-0.052-0.128l0.07-0.103l-0.017-0.22l0.117-0.531l-0.062-0.237l0.115-0.083l-0.016-0.218l0.069-0.104l-0.052-0.128
			l0.192-0.526l0.367-0.375l0.401-0.018l0.496,0.206l0.317,0.315l0.073,0.269l-0.002,0.448l-0.093,0.225l0.06,0.237l-0.111,0.271
			l-0.111,1.088l-0.052,0.508l-0.125,0.236l0.022,0.327l-0.309,1.059l-0.244,1.034l-0.431,1.036l-0.049,0.243l-0.225,0.355
			l-0.019,0.229l-0.475,1.018l-0.444,1.002l-0.128,0.053l0.027,0.064l-0.365,0.561l-0.159,0.066l0.026,0.063l-0.445,0.37
			l-0.932,0.72l-0.451,0.261l-0.747,0.271l-0.959,0.023l-0.13-0.133l-0.205,0.047l-0.508-0.238l-0.153-0.011l-0.377-0.367
			l-0.411-0.277l-0.289-0.067l-0.178,0.111l-0.207,0.494l-0.183,0.188l-0.012,0.154l-0.196,0.156l-0.049,0.243l-0.196,0.156
			l-0.125,0.238l-0.179,0.11l0.026,0.063l-0.171,0.221l-0.024,0.122l-0.127,0.053l0.025,0.062l-0.647,0.417l-0.755,0.609
			l-0.502,0.32l-0.587,0.204l-0.877-0.049l-0.231-0.016l-0.823-0.368l-0.317-0.317l-0.063,0.027l-0.719-0.749l-0.548-0.966
			l-0.229-0.465l-0.293-1.072l-0.027-0.064l0.097-0.039l-0.249-1.053l-0.241-0.944l-0.066-0.795l-0.115-1.183l-0.128-1.848
			l0.062-0.027l-0.065-0.16l0.062-0.025l-0.052-0.128l0.064-0.025l-0.065-0.158l0.096-0.04l-0.054-0.128l0.063-0.027l-0.101-0.516
			l0.051-0.06l-0.083-0.562l0.064-0.027l-0.051-0.391l0.069-0.102l-0.033-0.173l0.119-0.162l-0.052-0.126l0.101-0.117l-0.065-0.159
			l0.133-0.131l-0.065-0.157l0.101-0.116l0.021-0.941l0.354-1.041l0.003-0.263l0.125-0.238l0.01-0.339l0.135-0.577l0.25-0.479
			l0.018-0.229l0.195-0.157l0.068-0.287l0.335-0.361l0.095-0.226l0.127-0.054l0.701-0.737l0.376-0.267l1.108-0.383l0.421-0.249
			l1.045,0.091l0.886,0.341l0.879,0.684l0.424,0.123l0.45-0.261l0.539-0.595l0.117-0.348l0.16-0.064l-0.027-0.065l0.387-0.42
			l0.312-0.24l0.005-0.078l0.452-0.261l0.231,0.017L173.875,110.799z M164.932,123.105l-0.216,0.014l0.02,0.141l0.122,0.025
			l0.102-0.118L164.932,123.105z M165.589,125.778l0.115-0.085l0.041-0.166l-0.176,0.11l-0.007,0.077L165.589,125.778z
			 M169.18,128.696l0.025-0.121l0.223-0.092l0.011-0.153l0.885-1.112l0.079-0.256l0.116-0.084l0.339-1.073l0.192-0.526l-0.053-0.129
			l0.135-0.128l-0.067-0.161l0.103-0.115l-0.036-0.356l0.063-1.11l0.059-1.03l0.021-1.126l-0.089-1.119l0.017-0.865l-0.05-0.392
			l0.065-1.108l-0.108-1.073l-0.357-1.045l-0.146-0.536l-0.363-0.337l-0.879-0.232l-0.549,0.114l-0.479,0.197l-0.564,0.531
			l-0.279,0.228l-0.011,0.153l-0.128,0.053l-0.25,0.477l-0.218,0.647l0.052,0.129l-0.309,0.873l-0.05,0.059l-0.004,0.263
			l-0.113,0.271l-0.061,0.843l0.06,0.238l-0.161,1.148l0.038,0.357l-0.113,0.27l0.044,1.101l0.082,1.01l-0.057,0.135l0.028,0.25
			l-0.069,0.104l-0.004,0.263l0.312,1.026l0.047,0.204l-0.043,0.168l0.133,0.952l0.17,1.047l0.153,0.46l0.063-0.026l0.515,0.794
			l0.561,0.181l0.025,0.064l0.549-0.116L169.18,128.696z M165.047,118.321l0.054,0.127l0.444-0.183l-0.07-0.083l-0.296,0.009
			l-0.114,0.085L165.047,118.321z M166.738,115.012l-0.064-0.158l-0.122-0.023l-0.057,0.134l0.148,0.088L166.738,115.012z
			 M167.491,113.584l0.199,0.028l-0.002-0.185l-0.187,0.003L167.491,113.584z M172.04,125.056l-0.21,0.124l0.016,0.217l0.152,0.012
			l0.211-0.126l0.305-0.348l-0.146-0.35l-0.158,0.064l-0.118,0.35L172.04,125.056z M173.417,125.682l-0.048-0.204l-0.135-0.057
			l-0.159,0.065l0.246,0.234L173.417,125.682z M173.036,120.692l-0.118-0.288l-0.167-0.042l-0.004,0.261l0.226,0.096
			L173.036,120.692z M173.172,121.382l0.023-0.122l-0.085-0.114l-0.153-0.012l-0.024,0.121l0.13,0.133L173.172,121.382z
			 M172.085,116.946l0.159-0.067l-0.064-0.16l-0.16,0.067L172.085,116.946z M172.798,118.852l-0.065-0.159l-0.226-0.095
			l-0.064,0.027l0.17,0.229l0.123,0.024L172.798,118.852z M174.177,126.708l0.312-0.052l-0.137-0.243l-0.204,0.047l0.033,0.173
			L174.177,126.708z M172.852,120.246l0.158-0.065l-0.027-0.251l-0.159,0.067l0.002,0.186L172.852,120.246z M173.374,119.433
			l0.006-0.077l-0.117-0.101l-0.14,0.021l-0.184,0.188l0.339,0.009L173.374,119.433z M174.567,127.294l0.197,0.029l-0.001-0.184
			l-0.153-0.013l-0.024,0.121L174.567,127.294z M172.502,116.325l0.092,0.223l0.286-0.116l-0.028-0.25l-0.154-0.012l-0.146,0.097
			L172.502,116.325z M173.464,120.739l0.16-0.065l-0.053-0.129l-0.16,0.065L173.464,120.739z"/>
		<path fill="#FFFFFF" d="M186.649,116.191l0.085,0.115l0.196-0.157l0.085,0.114l0.019,1.038l-0.009,0.524l0.075,0.453l-0.095,0.04
			l0.048,0.837l0.248,1.053l0.102,0.518l0.189,0.371l0.251,0.156l0.099,0.146l0.257,0.082l0.375-0.082l0.413-0.357l0.374-0.451
			l0.442-1.003l0.125-0.239l-0.047-0.204l0.238-0.508l0.277-1.046l0.126-0.688l-0.047-0.204l0.275-0.598l-0.065-0.159l0.063-0.027
			l-0.052-0.127l0.217-1.099l0.124-1.056l0.156-0.886l0.121-0.609l0.411-0.357l0.287-0.118l0.747,0.363l0.216,0.434l-0.077,1.076
			l-0.09,0.597l-0.094,0.224l-0.064,1.108l-0.176,0.931l-0.244,1.033l-0.21,0.758l0.028,0.249l-0.43,1.035l-0.119,0.794
			l-0.534,0.967l-0.579,0.948l-0.58,0.761l-0.636,0.449l-1.134,0.506l-0.127,0.054l-0.104-0.071l-0.408,0.096l-1.015-0.292
			l-0.625-0.339l-0.24-0.31l-0.381-0.291l-0.292-0.438l-0.32-1.136l-0.293-1.072l-0.07-0.529l-0.078-0.191l0.037-0.091l-0.142-0.613
			l-0.034-0.807l0.063-0.025l0.004-0.896l-0.006-0.558l-0.089-0.485l0.051-1.141l0.079-0.442l-0.061-0.236l0.094-0.225l-0.147-0.536
			l0.07-0.104l-0.074-0.902l-0.174-0.599l-0.256-0.081l-0.054-0.126l-0.153-0.011l-0.066-0.16l-0.14,0.021l-0.174-0.152
			l-0.159,0.065l-0.812-0.336l-0.25,0.029l-0.327,0.471l-0.001,1.082l0.028,0.25l-0.136,0.391l0.065,0.159l-0.064,0.026l0.054,0.127
			l-0.064,0.026l0.065,0.16l-0.095,0.04l0.047,0.205l-0.076,0.626l0.04,0.097l-0.064,0.026l-0.091,1.045l-0.084,0.518l0.065,0.161
			l-0.062,0.026l0.011,0.479l-0.069,0.104l0.033,0.172l-0.206,0.497l-0.183,0.187l-0.331,0.101l-0.47-0.144l-0.354-0.227
			l-0.125-0.209l-0.076-0.005l-0.025-0.513l0.14-0.84l-0.067-0.346l0.141-0.469l-0.047-0.839l0.08-0.256l-0.066-0.159l0.147-0.546
			l-0.027-0.883l0.056-0.135l-0.033-0.172l0.081-0.071l-0.055-0.314l0.066-0.289l-0.046-0.205l0.051-0.057l-0.145-0.985l-0.344-0.38
			l-0.354-0.227l-0.111-0.179l-0.096,0.039l-0.052-0.126l-0.062,0.025l-0.276-0.482l-0.063,0.026l-0.254-0.528l-0.161-0.568
			l-0.031-0.437l0.19-0.712l-0.027-0.249l0.093-0.226l-0.027-0.249l0.264-0.443l0.147-0.547l0.159-0.066l0.094-0.226l0.398-0.387
			l0.876-0.138l0.104,0.068l0.254-0.104l0.688,0.126l0.053,0.128l0.153,0.011l0.352,0.489l0.083,0.563l-0.059,1.03l0.032,0.806
			l-0.003,0.263l0.262,0.452l0.625,0.338l0.217-0.016l1.035,0.431l1.054,0.387l0.818,0.444l0.471,0.328l0.214,0.248l0.506,1.134
			l0.248,0.419l0.102,0.518l-0.033,1.094l-0.07,0.552l0.089,1.12l-0.055,0.319l0.061,0.236l-0.057,0.136l0.034,0.172l-0.318,0.132
			l-0.036,0.09L186.649,116.191z M179.794,108.617l-0.138-0.242l-0.172,0.035l-0.01,0.154l0.255,0.081L179.794,108.617z
			 M179.281,106.292l0.128-0.052l-0.052-0.128l-0.129,0.052L179.281,106.292z M183.252,110.582l0.183,0.261l0.254-0.29l-0.021-0.142
			l-0.122-0.022l-0.242,0.137L183.252,110.582z M185.521,118.335l-0.054-0.312l-0.16,0.066l-0.023,0.122l0.083,0.112
			L185.521,118.335z M185.656,116.676l0.004-0.264l-0.393-0.135l-0.146,0.098l0.149,0.273l0.219,0.171l-0.01,0.153l0.103,0.07
			l0.3-0.089l0.252,0.157l0.141-0.02l-0.182-0.261l-0.38-0.104L185.656,116.676z M184.518,110.21l-0.15-0.273l-0.188-0.184l-0.186,0
			l-0.011,0.154l0.136,0.242l0.334,0.087L184.518,110.21z M185.633,117.432l0.121,0.024l0.288-0.119l-0.221-0.17l-0.186,0.003
			l0.015,0.216L185.633,117.432z M184.571,110.523l-0.024,0.123l0.137,0.242l0.225,0.092l-0.057-0.499l-0.07-0.082l-0.199-0.03
			l0.026,0.063L184.571,110.523z M185.795,114.754l-0.123-0.023l-0.168,0.219l0.059,0.236l0.6-0.174l-0.013-0.664l-0.025-0.063
			l-0.29-0.067l-0.024,0.121l0.073,0.268l-0.024,0.122L185.795,114.754z M185.109,111.83l0.021,0.141l0.291,0.252l0.054,0.312
			l0.351-0.144l-0.098-0.147l-0.186,0.003l-0.149-0.273l-0.023-0.326l-0.24,0.137L185.109,111.83z M185.941,114.022l0.19-0.079
			l-0.071-0.081l-0.187,0.001L185.941,114.022z M185.524,111.658l0.273-0.149l0.044-0.167l-0.281,0.042l-0.076,0.179
			L185.524,111.658z"/>
		<path fill="#FFFFFF" d="M208.59,105.568l0.115,0.551l-0.123,1.056l-0.117,0.348l0.017,0.403l-0.187,1.083l-0.167,0.592l0.029,0.25
			l-0.192,0.527l0.027,0.249l-0.351,0.779l-0.003,0.263l-0.34,1.073l-0.431,1.035l-0.237,0.509l-0.092,0.409l-0.159,0.065
			l-0.012,0.154l-0.159,0.066l0.002,0.186l-0.128,0.053l-0.396,0.574l-0.126,0.238l-0.21,0.125l-0.158,0.25l-0.869,0.694
			l-0.223,0.093l-0.425,0.323l-0.842,0.311l-0.104-0.068l-0.127,0.054l-0.646-0.032l-0.194-0.107l-0.203,0.046l-0.857-0.54
			l-0.053-0.129l-0.554-0.255l-0.51,0.211l-0.503,0.953l-0.099,0.301l-0.146,0.098l0.002,0.187l-0.178,0.11l-0.025,0.122
			l-0.766,0.764l-0.349,0.329l-1.03,0.575l-0.517,0.103l-0.622,0.032l-0.192-0.108l-0.192,0.079l-1.09-0.293l-0.226-0.096
			l-0.343-0.379l-0.136-0.057l-0.547-0.781l-0.511-1.056l-0.22-0.805l-0.344-1.016l-0.147-0.536l-0.076-1.085l-0.165-1.126
			l-0.147-0.537l-0.029-0.435l0.067-0.289l-0.101-0.333l0.037-0.275l0.068-0.103l-0.063-1.056l-0.055-0.312l0.047-1.063l-0.07-0.531
			l0.2-1.052l0.024-0.122l-0.074-0.267l0.245-1.034l0.315-0.951l-0.027-0.249l0.443-1.004l0.193-0.527l0.238-0.322l0.08-0.257
			l0.631-0.821l0.432-0.401l0.885-0.478l0.861-0.354l0.09,0.037l0.409-0.094l0.831,0.029l0.104,0.069l0.172-0.035l0.508,0.238
			l0.153,0.01l0.512,0.425l0.447,0l0.228-0.169l0.025-0.122l-0.086-0.3l0.053-0.505l0.138-0.841l0.022-0.756l-0.179-0.523
			l-0.076-0.639l0.034-0.909l-0.03-0.436l0.068-0.103l-0.091-0.223l0.001-1.082l0.077-1.077l-0.055-0.312l0.097-0.489l0.378-0.715
			l0.215-0.201l1.083-0.447l0.525,0.007l0.437,0.156l0.254,0.343l0.067,0.344l-0.091,0.411l-0.027,0.57l0.147,0.536l0.036,2.074
			l-0.078,1.077l-0.026,0.569l0.083,0.562l-0.046,1.062l0.045,1.102l-0.054,0.955l-0.007,1.158l-0.085,0.52l0.141,1.062l0.053,0.127
			l-0.094,0.225l0.088,0.486l-0.024,0.569l0.059,0.237l-0.119,0.794l0.125,0.395l-0.093,0.227l0.082,0.376l-0.06,1.032l-0.014,1.049
			l0.055,0.947l-0.095,0.225l0.062,0.236l-0.112,0.271l0.208,0.772l0.024,0.512l-0.081,0.257l0.198,1.112l-0.038,0.09l0.108,0.44
			l0.272,0.484l0.285,0.33l0.56,0.18l0.478-0.198l0.229-0.169l0.094-0.226l0.209-0.123l0.292-0.381l0.519-0.998l0.175-0.483
			l0.159-0.065l0.129-0.5l0.22-0.463l0.204-0.681l-0.028-0.25l0.157-0.25l-0.028-0.249l0.138-0.207l0.071-0.552l0.069-0.103
			l-0.065-0.159l0.063-0.027l0.003-0.263l0.206-0.495l0.184-0.822l-0.043-0.281l0.197-0.789l0.2-1.051l0.171-0.221l0.407-0.093
			l0.039,0.095l0.128-0.052l0.027,0.063l0.204-0.047l0.457,0.296L208.59,105.568z M194.588,117.09l-0.022-0.324l-0.158,0.064
			l-0.024,0.123l0.129,0.133L194.588,117.09z M195.504,103.773l-0.126,0.052l-0.262,0.63l-0.197,0.157l-0.103,0.564l-0.27,0.521
			l-0.041,0.352l-0.18,0.559l-0.15,0.81l0.04,0.281l-0.115,0.98l0.026,0.063l-0.07,0.104l0.027,0.249l-0.093,0.225l0.05,1.024
			l-0.068,0.288l0.062,1.055l0.083,1.011l0.107,1.074l0.172,1.048l0.292,1.072l0.135,0.506l0.392,0.769l0.213,0.062l0.155,0.195
			l0.532,0.117l0.441-0.107l0.488-0.351l0.639-0.712l0.215-0.386l-0.009-0.109l0.179-0.11l0.353-1.04l0.225-0.54l0.222-0.912
			l0.032-1.095l0.053-0.954l-0.072-0.269l-0.038-0.543l0.105-0.193l-0.062-1.056l0.059-0.397l-0.088-1.12l0.019-0.492l0.058-0.134
			l-0.074-0.903l0.002-1.081l-0.161-0.568l-0.261-0.452l-0.731-0.781l-0.501-0.127l-0.263-0.005l-0.026-0.063l-0.254,0.106
			l-0.071-0.083l-0.543,0.223l-0.525,0.441L195.504,103.773z M200.815,115.191l-0.168-0.228l-0.252-0.157l-0.143,0.021l0.03,0.249
			l0.252,0.158l0.217-0.017L200.815,115.191z M200.143,111.667l-0.066-0.16l-0.212-0.062l-0.023,0.121l0.085,0.115l0.122,0.024
			L200.143,111.667z M201.105,114.811l-0.005,0.263l-0.092,0.226l0.021,0.143l0.229-0.171l0.137-0.206l-0.005-0.558l-0.34-0.009
			l-0.118-0.286l-0.128-0.133l-0.251,0.027l-0.011,0.155l0.123,0.21l0.413,0.275L201.105,114.811z M199.719,109.827l0.246-0.213
			l-0.052-0.128l-0.225-0.093l-0.061,0.21L199.719,109.827z M200.437,111.023l0.083-0.07l0.384,0.026l0.082-0.071l-0.157-0.381
			l-0.729,0.039l0.008,0.109l0.303,0.286L200.437,111.023z M200.77,111.557l0.161,0.12l0.062-0.212l-0.243-0.048l-0.282,0.041
			l0.065,0.159l0.153,0.012L200.77,111.557z M200.634,109.785l0.027,0.063l-0.291,0.38l0.193,0.108l0.306-0.164l0.048-0.243
			l-0.064-0.16l-0.154-0.012L200.634,109.785z M200.214,108.766l0.128-0.052l0.093-0.226l-0.219-0.168h-0.186l0.041,0.282
			l0.084,0.113L200.214,108.766z M199.937,107.278l0.12,0.024l0.255-0.105l-0.144-0.166l-0.14,0.021l-0.119,0.161L199.937,107.278z
			 M201.16,112.775l0.223-0.092l0.112-0.271l-0.105-0.255l-0.121-0.023l-0.187,0.45l0.006,0.108L201.16,112.775z M199.531,104.312
			l0.594,0.537l0.122,0.025l0.255-0.105l-0.306-0.471l-0.379-0.105l-0.116-0.102l-0.021-0.14l0.28-0.226l-0.067-0.16l-0.122-0.026
			l-0.291,0.196l0.15,0.274l-0.062,0.212L199.531,104.312z M200.758,108.279l-0.136-0.242l-0.104-0.068l-0.127,0.053l0.136,0.241
			l0.104,0.068L200.758,108.279z M200.931,109.328l0.01-0.153l-0.129-0.134l-0.062,0.026l-0.025,0.123l0.13,0.133L200.931,109.328z
			 M199.276,102.067l0.211,0.062l0.223-0.092l-0.084-0.114l-0.339-0.008L199.276,102.067z M200.556,106.163l0.416-0.17l-0.021-0.142
			l-0.773,0.207l0.008,0.11L200.556,106.163z M200.572,107.015l0.187,0.182l0.123,0.025l0.292-0.196l-0.119-0.285l-0.387,0.234
			L200.572,107.015z M201.391,109.808l0.127-0.052l-0.066-0.159l-0.128,0.053L201.391,109.808z M200.244,102.153l-0.123-0.024
			l-0.255,0.105l-0.023,0.121l0.104,0.255l0.52-0.101l0.469-0.306l-0.291-0.438l0.056-0.135l-0.16,0.065l-0.231,0.433
			L200.244,102.153z M199.72,101.698l0.243-0.137l-0.009-0.109l-0.121-0.023l-0.121,0.161L199.72,101.698z M200.335,101.108
			l-0.138-0.242l-0.205,0.047l0.139,0.241l0.14-0.02L200.335,101.108z M201.118,105.445l0.151-0.174l-0.047-0.204l-0.128,0.052
			l-0.057,0.135L201.118,105.445z M200.296,97.582l-0.189-0.37l-0.121-0.022l-0.005,0.261l0.188,0.184L200.296,97.582z
			 M200.263,98.678l0.123,0.023l0.228-0.169l-0.098-0.146l-0.191,0.079l-0.056,0.136L200.263,98.678z M200.536,99.16l0.243-0.137
			l-0.034-0.173l-0.242,0.137l0.009,0.109L200.536,99.16z M201.106,97.918l-0.028-0.25l-0.118-0.101l-0.215,0.014l0.041,0.283
			l0.256,0.079L201.106,97.918z"/>
	</g>
</g>
</svg>
